<svg width="600" height="600" viewBox="0 0 887 887" fill="none" xmlns="http://www.w3.org/2000/svg">
<path d="M715.809 499.381C698.069 489.624 683.877 464.788 683.877 444.387C683.877 437.291 685.651 431.082 689.199 427.534C679.442 428.421 673.233 436.404 673.233 449.709C673.233 470.11 687.425 494.946 705.165 504.703C716.696 510.912 725.566 510.025 731.775 503.816C726.453 503.816 721.131 502.929 715.809 499.381Z" fill="#72B5E8"/>
<path d="M746.855 493.172C746.855 490.511 746.855 487.85 745.968 485.189L759.273 483.415C758.386 477.206 755.725 470.11 753.064 463.901L737.985 459.466C735.324 454.144 732.663 448.822 729.115 443.5L732.663 428.421C728.228 423.099 723.793 417.777 718.471 413.342L710.488 423.986C708.714 422.212 706.053 421.325 704.279 419.551C702.505 418.664 699.844 416.89 698.07 416.003L690.087 396.489C684.765 394.715 680.33 394.715 675.895 394.715L679.443 413.342C675.895 414.229 673.234 416.003 670.573 418.664L655.494 406.246C652.833 409.794 651.059 414.229 649.285 418.664L662.59 435.517C662.59 438.178 661.703 439.952 661.703 442.613C661.703 445.274 661.703 447.935 662.59 450.596L649.285 452.37C650.172 458.579 652.833 465.675 655.494 471.884L670.573 476.319C673.234 481.641 675.895 486.963 679.443 492.285L675.895 507.364C680.33 512.686 684.765 518.008 690.087 522.443L698.07 511.799C699.844 513.573 702.505 514.46 704.279 516.234C706.053 517.121 708.714 518.895 710.488 519.782L718.471 539.296C723.793 541.07 728.228 541.07 732.663 541.07L729.115 522.443C732.663 521.556 735.324 519.782 737.985 517.121L753.064 529.539C755.725 525.991 757.499 521.556 759.273 517.121L745.968 500.268C746.855 497.607 746.855 494.946 746.855 493.172ZM705.166 504.703C687.426 494.946 673.234 470.11 673.234 449.709C673.234 429.308 687.426 421.325 705.166 431.082C722.906 440.839 737.098 465.675 737.098 486.076C737.098 506.477 722.906 515.347 705.166 504.703Z" fill="#A8CFF0"/>
<path d="M710.487 409.794L702.504 390.28L690.086 397.376L698.069 416.89L710.487 409.794Z" fill="#72B5E8"/>
<path d="M698.07 416.89C699.844 417.777 702.505 418.664 704.279 420.438C706.053 421.325 708.714 423.099 710.488 424.873L718.471 414.229L716.697 413.342C714.923 412.455 712.262 410.681 710.488 409.794L698.07 416.89Z" fill="#D1EBFF"/>
<path d="M702.505 390.28C697.183 388.506 692.748 388.506 688.313 388.506L675.895 395.602C680.33 395.602 684.765 395.602 690.087 397.376L702.505 390.28Z" fill="#D1EBFF"/>
<path d="M745.081 421.325C740.646 416.003 736.211 410.681 730.889 406.246L718.471 414.229C723.793 418.664 728.228 423.986 732.663 429.308L745.081 421.325Z" fill="#D1EBFF"/>
<path d="M732.663 428.421L729.115 443.5L741.533 436.404L745.081 421.325L732.663 428.421Z" fill="#72B5E8"/>
<path d="M729.115 443.5C732.663 448.822 735.324 454.144 737.985 459.466L750.403 452.37C747.742 447.048 745.081 441.726 741.533 436.404L729.115 443.5Z" fill="#72B5E8"/>
<path d="M738.871 459.466L753.063 463.901L765.481 456.805L751.289 452.37L738.871 459.466Z" fill="#D1EBFF"/>
<path d="M753.063 463.901C755.724 470.11 757.498 477.206 759.272 483.415L771.69 476.319C770.803 470.11 768.142 463.014 765.481 456.805L753.063 463.901Z" fill="#72B5E8"/>
<path d="M679.442 415.116L678.555 409.794L667.911 400.924L655.493 408.02L670.572 420.438C673.233 417.777 675.894 416.003 679.442 415.116Z" fill="#72B5E8"/>
<path d="M759.272 516.234C758.385 521.556 755.724 525.104 753.063 528.652L765.481 521.556C768.142 518.008 769.916 513.573 771.69 509.138L759.272 516.234Z" fill="#72B5E8"/>
<path d="M758.386 493.172C758.386 490.511 759.273 488.737 759.273 486.076C759.273 485.189 759.273 484.302 759.273 483.415L746.855 485.189C746.855 487.85 747.742 490.511 747.742 493.172C747.742 495.833 747.742 497.607 746.855 500.268L758.386 493.172Z" fill="#72B5E8"/>
<path d="M745.968 500.268L759.273 516.234L771.691 509.138L758.386 493.172L745.968 500.268Z" fill="#D1EBFF"/>
<path d="M738.871 516.234C736.21 518.895 733.549 520.669 730.001 521.556L733.549 540.183L745.967 533.087L743.306 519.782L738.871 516.234Z" fill="#72B5E8"/>
<path d="M662.589 446.161L650.171 453.257L663.476 451.483C662.589 449.709 662.589 447.935 662.589 446.161Z" fill="#D1EBFF"/>
<path d="M698.069 512.686L690.086 523.33L702.504 516.234C700.73 514.46 699.843 513.573 698.069 512.686Z" fill="#72B5E8"/>
<path d="M677.669 416.003C676.782 416.003 676.782 416.003 675.895 416.89C676.782 416.003 677.669 416.003 677.669 416.003Z" fill="white"/>
<path d="M660.815 451.483L650.171 453.257C650.171 453.257 650.171 453.257 650.171 454.144L660.815 451.483C660.815 452.37 660.815 452.37 660.815 451.483Z" fill="white"/>
<path d="M732.662 429.308L729.114 444.387C732.662 449.709 735.323 455.031 737.984 460.353L753.063 464.788C755.724 470.997 757.498 477.206 758.385 483.415H760.159C759.272 477.206 756.611 470.11 753.95 463.901L738.871 459.466C736.21 454.144 733.549 448.822 730.001 443.5L733.549 428.421C729.114 423.099 724.679 417.777 719.357 413.342L718.47 415.116C723.792 419.551 728.227 423.986 732.662 429.308Z" fill="white"/>
<path d="M705.166 504.703C687.426 494.946 673.234 470.11 673.234 449.709C673.234 440.839 675.895 434.63 680.33 430.195C675.008 433.743 671.46 440.839 671.46 450.596C671.46 470.997 685.652 495.833 703.392 505.59C712.262 510.912 720.245 510.912 726.454 507.364H725.567C719.358 510.025 712.262 509.138 705.166 504.703Z" fill="white"/>
<path d="M731.775 521.556C733.549 520.669 736.21 519.782 737.984 518.008L737.097 517.121C735.323 518.895 733.549 520.669 731.775 521.556Z" fill="white"/>
<path d="M669.685 420.438C669.685 420.438 669.685 419.551 669.685 420.438L656.38 407.133C656.38 408.02 655.493 408.02 656.38 408.02L669.685 420.438Z" fill="white"/>
<path d="M729.114 522.443L732.662 540.183C732.662 540.183 732.662 540.183 733.549 540.183L730.001 521.556C729.114 522.443 728.227 522.443 729.114 522.443Z" fill="white"/>
<path d="M747.742 492.285C747.742 489.624 747.742 487.85 746.855 485.189H745.968C745.968 487.85 746.855 490.511 746.855 493.172C746.855 495.833 746.855 497.607 745.968 500.268L759.273 517.121C758.386 521.556 756.612 525.104 754.838 527.765V528.652C757.499 525.104 759.273 520.669 761.047 516.234L747.742 499.381C746.855 497.607 747.742 494.946 747.742 492.285Z" fill="white"/>
<path d="M689.2 397.376L697.183 416.89C698.957 417.777 701.618 418.664 703.392 420.438C705.166 421.325 707.827 423.099 709.601 424.873V423.986C707.827 422.212 706.053 421.325 704.279 420.438C702.505 419.551 699.844 417.777 698.07 416.89L690.087 397.376C684.765 395.602 680.33 395.602 675.895 395.602V396.489C680.33 396.489 685.652 396.489 689.2 397.376Z" fill="white"/>
<path d="M696.295 513.573L690.086 522.443L690.973 523.33L698.069 514.46C697.182 513.573 697.182 513.573 696.295 513.573Z" fill="white"/>
<path d="M711.374 347.704C684.764 332.625 663.476 295.371 663.476 265.213C663.476 253.682 666.137 244.812 671.459 239.49C657.267 240.377 646.623 252.795 646.623 273.196C646.623 303.354 667.911 340.608 694.521 355.687C711.374 365.444 725.566 363.67 734.436 353.913C727.34 354.8 719.357 352.139 711.374 347.704Z" fill="#72B5E8"/>
<path d="M757.498 337.06C757.498 333.512 757.498 329.077 756.611 325.529L776.125 322.868C774.351 313.111 770.803 303.354 767.255 293.597L745.08 287.388C741.532 279.405 736.21 271.422 730.888 263.439L736.21 241.264C730.001 233.281 722.905 225.298 714.922 219.089L703.391 234.168C699.843 231.507 697.182 229.733 693.634 227.959C690.086 226.185 687.425 224.411 683.877 223.524L672.346 194.253C665.25 192.479 657.267 191.592 651.058 192.479L656.38 220.863C651.058 222.637 646.623 225.298 642.188 228.846L620.9 209.332C617.352 214.654 613.804 220.863 612.03 228.846L631.544 253.682C630.657 257.23 630.657 260.778 630.657 264.326C630.657 267.874 630.657 272.309 631.544 275.857L612.03 277.631C613.804 287.388 617.352 297.145 620.9 306.902L643.075 313.998C646.623 321.981 651.945 329.964 657.267 337.947L651.945 360.122C658.154 368.105 665.25 376.088 673.233 382.297L684.764 367.218C688.312 369.879 690.973 371.653 694.521 373.427C698.069 375.201 700.73 376.975 704.278 377.862L715.809 407.133C722.905 408.907 730.888 409.794 737.097 408.907L731.775 381.41C737.097 379.636 741.532 376.975 745.967 373.427L768.142 392.054C771.69 386.732 775.238 380.523 777.012 372.54L757.498 347.704C757.498 345.043 757.498 341.495 757.498 337.06ZM694.521 355.687C667.911 340.608 646.623 303.354 646.623 273.196C646.623 243.038 667.911 230.62 694.521 245.699C721.131 260.778 742.419 298.032 742.419 328.19C742.419 358.348 721.131 370.766 694.521 355.687Z" fill="#A8CFF0"/>
<path d="M703.391 211.993L690.973 182.722L672.346 193.366L684.764 222.637L703.391 211.993Z" fill="#72B5E8"/>
<path d="M684.764 222.637C688.312 223.524 690.973 225.298 694.521 227.072C698.069 228.846 700.73 231.507 704.278 233.281L715.809 218.202C715.809 218.202 714.035 217.315 713.148 216.428C709.6 214.654 706.939 212.88 703.391 211.993L684.764 222.637Z" fill="#D1EBFF"/>
<path d="M690.973 182.722C683.877 180.948 675.894 180.061 669.685 180.948L651.058 191.592C657.267 190.705 664.363 191.592 672.346 193.366L690.973 182.722Z" fill="#D1EBFF"/>
<path d="M755.724 230.62C749.515 222.637 742.419 214.654 734.436 208.445L715.809 219.089C722.905 225.298 730.888 233.281 737.097 241.264L755.724 230.62Z" fill="#D1EBFF"/>
<path d="M737.097 241.264L731.775 263.439L750.402 252.795L755.724 230.62L737.097 241.264Z" fill="#72B5E8"/>
<path d="M731.775 263.439C737.097 270.535 741.532 278.518 745.967 287.388L764.594 276.744C761.046 268.761 755.724 260.778 750.402 252.795L731.775 263.439Z" fill="#72B5E8"/>
<path d="M745.08 287.388L767.255 293.597L785.882 282.953L763.707 276.744L745.08 287.388Z" fill="#D1EBFF"/>
<path d="M767.255 293.597C770.803 303.354 774.351 313.111 776.125 322.868L794.752 312.224C792.978 302.467 789.43 292.71 785.882 282.953L767.255 293.597Z" fill="#72B5E8"/>
<path d="M656.38 219.976L654.606 211.993L638.64 198.688L620.9 209.332L643.075 227.959C646.623 224.411 651.058 221.75 656.38 219.976Z" fill="#72B5E8"/>
<path d="M776.125 372.54C774.351 379.636 770.803 386.732 767.255 392.054L785.882 381.41C789.43 376.088 792.978 369.879 794.752 361.896L776.125 372.54Z" fill="#72B5E8"/>
<path d="M775.238 337.06C776.125 333.512 776.125 329.964 776.125 326.416C776.125 325.529 776.125 323.755 776.125 322.868L756.611 325.529C757.498 329.077 757.498 333.512 757.498 337.06C757.498 340.608 757.498 344.156 756.611 347.704L775.238 337.06Z" fill="#72B5E8"/>
<path d="M756.611 347.704L776.125 372.54L794.752 361.896L775.238 337.06L756.611 347.704Z" fill="#D1EBFF"/>
<path d="M745.08 373.427C741.532 376.975 736.21 379.636 730.888 381.41L736.21 409.794L754.837 399.15L751.289 378.749L745.08 373.427Z" fill="#72B5E8"/>
<path d="M630.657 266.987L612.03 277.631L631.544 274.97C630.657 272.309 630.657 269.648 630.657 266.987Z" fill="#D1EBFF"/>
<path d="M684.764 367.218L673.233 382.297L691.86 371.653C689.199 370.766 686.538 368.992 684.764 367.218Z" fill="#72B5E8"/>
<path d="M654.606 220.863C653.719 220.863 652.832 221.75 651.945 221.75C652.832 221.75 653.719 221.75 654.606 220.863Z" fill="white"/>
<path d="M628.883 275.857L612.917 277.631V278.518L628.883 276.744V275.857Z" fill="white"/>
<path d="M736.21 242.151L730.888 264.326C736.21 271.422 740.645 279.405 745.08 288.275L767.255 295.371C770.803 305.128 773.464 313.998 776.125 323.755H777.899C776.125 313.998 772.577 304.241 769.029 294.484L746.854 287.388C743.306 279.405 737.984 271.422 732.662 263.439L737.984 241.264C731.775 233.281 724.679 225.298 716.696 219.089L715.809 221.75C722.905 227.072 730.001 234.168 736.21 242.151Z" fill="white"/>
<path d="M694.521 354.8C667.911 339.721 646.623 302.467 646.623 272.309C646.623 259.004 651.058 249.247 658.154 243.038C650.171 248.36 644.849 259.004 644.849 273.196C644.849 303.354 666.137 340.608 692.747 355.687C706.052 363.67 718.47 363.67 727.34 359.235C726.453 359.235 726.453 359.235 725.566 360.122C716.696 362.783 706.052 361.896 694.521 354.8Z" fill="white"/>
<path d="M735.323 380.523C738.871 379.636 741.532 377.862 744.193 375.201L743.306 374.314C740.645 376.975 737.984 378.749 735.323 380.523Z" fill="white"/>
<path d="M642.188 227.959C641.301 227.959 642.188 227.072 643.075 227.072L621.787 209.332C620.9 210.219 620.9 211.106 621.787 211.106L642.188 227.959Z" fill="white"/>
<path d="M730.888 382.297L736.21 409.794C735.323 409.794 737.097 409.794 737.984 409.794L732.662 381.41C731.775 381.41 730.888 382.297 730.888 382.297Z" fill="white"/>
<path d="M758.385 337.06C758.385 333.512 758.385 329.964 757.498 326.416H755.724C756.611 329.964 756.611 334.399 756.611 337.947C756.611 341.495 756.611 345.043 755.724 348.591L775.238 373.427C773.464 379.636 770.803 384.958 768.142 390.28V392.054C771.69 386.732 775.238 380.523 777.012 372.54L757.498 347.704C758.385 345.043 758.385 341.495 758.385 337.06Z" fill="white"/>
<path d="M671.459 194.253L682.99 223.524C686.538 224.411 689.199 226.185 692.747 227.959C696.295 229.733 698.956 232.394 702.504 234.168V232.394C699.843 230.62 697.182 228.846 694.521 227.072C690.973 225.298 688.312 223.524 684.764 222.637L673.233 193.366C666.137 191.592 658.154 190.705 651.945 191.592V192.479C658.154 192.479 665.25 192.479 671.459 194.253Z" fill="white"/>
<path d="M682.102 368.105L672.345 381.41L673.232 382.297L682.989 368.992C682.989 368.992 682.989 368.992 682.102 368.105Z" fill="white"/>
<path d="M718.47 180.948C718.47 178.287 721.131 176.513 722.905 178.287C725.566 180.061 727.34 183.609 727.34 186.27C727.34 188.931 724.679 190.705 722.905 188.931C720.244 187.157 718.47 183.609 718.47 180.948Z" fill="#4756EA"/>
<path d="M704.278 549.053C704.278 547.279 706.052 546.392 707.826 547.279C709.6 548.166 710.487 550.827 710.487 552.601C710.487 554.375 708.713 555.262 706.939 554.375C705.165 553.488 704.278 550.827 704.278 549.053Z" fill="#4756EA"/>
<path d="M794.752 400.037H793.865V399.15L799.187 389.393C799.187 388.506 800.074 388.506 800.961 389.393C801.848 389.393 801.848 390.28 800.961 391.167L796.526 398.263L804.509 395.602C805.396 395.602 805.396 395.602 806.283 396.489C806.283 397.376 806.283 397.376 805.396 398.263L794.752 400.037Z" fill="#4756EA"/>
<path d="M698.956 441.726C703.391 444.387 706.939 448.822 709.6 454.144C709.6 454.144 712.261 453.257 713.148 453.257C714.922 452.37 718.47 452.37 721.131 454.144C728.227 457.692 733.549 467.449 733.549 475.432C733.549 489.624 709.6 494.059 709.6 494.059C709.6 494.059 686.538 463.014 686.538 449.709C686.538 446.161 684.764 444.387 687.425 443.5L691.86 440.839C692.747 439.952 695.408 439.952 698.956 441.726Z" fill="#3A4591"/>
<path d="M694.521 444.387C698.956 447.048 703.391 452.37 705.165 457.692C706.939 454.144 711.374 454.144 715.809 456.805C722.905 460.353 728.227 470.11 728.227 478.093C728.227 492.285 705.165 496.72 705.165 496.72C705.165 496.72 682.103 465.675 682.103 452.37C682.99 443.5 688.312 439.952 694.521 444.387Z" fill="#4756EA"/>
<path opacity="0.7" d="M694.521 444.387C698.956 447.048 703.391 452.37 706.052 457.692C706.052 456.805 706.052 457.692 706.052 456.805C704.278 451.483 699.843 446.161 695.408 443.5C691.86 441.726 689.199 440.839 686.538 442.613C689.199 442.613 690.973 442.613 694.521 444.387Z" fill="white"/>
<path opacity="0.7" d="M716.696 456.805C713.148 455.031 710.487 455.031 708.713 455.918C710.487 455.031 713.148 455.918 715.809 457.692C722.905 461.24 728.227 470.997 728.227 478.98C728.227 485.189 722.905 489.624 717.583 493.172C723.792 490.511 729.114 486.076 729.114 478.98C729.114 470.11 723.792 460.353 716.696 456.805Z" fill="white"/>
<path d="M798.3 398.263L796.526 396.489C808.944 384.958 815.153 367.218 815.153 343.269C815.153 284.727 773.464 213.767 722.905 184.496L723.792 182.722C775.238 212.88 816.927 284.727 816.927 344.156C817.814 368.105 810.718 386.732 798.3 398.263Z" fill="#4756EA"/>
<path d="M834.667 359.235C833.78 359.235 833.78 358.348 833.78 358.348C833.78 357.461 833.78 356.574 833.78 355.687C833.78 354.8 834.667 354.8 834.667 354.8C835.554 354.8 835.554 355.687 835.554 355.687C835.554 356.574 835.554 357.461 835.554 358.348C835.554 359.235 835.554 359.235 834.667 359.235Z" fill="#A8CFF0"/>
<path d="M770.803 439.065C769.916 439.065 769.916 438.178 769.916 438.178C769.916 437.291 770.803 437.291 770.803 437.291C772.577 437.291 773.464 437.291 775.238 437.291C776.125 437.291 776.125 437.291 776.125 438.178C776.125 439.065 776.125 439.065 775.238 439.065C774.351 439.065 772.577 439.065 770.803 439.065ZM764.594 439.065C762.82 439.065 761.046 439.065 760.159 438.178C759.272 438.178 759.272 437.291 759.272 437.291C759.272 436.404 760.159 436.404 760.159 436.404C761.933 436.404 762.82 436.404 764.594 437.291C765.481 437.291 765.481 438.178 765.481 438.178L764.594 439.065ZM782.334 438.178C781.447 438.178 781.447 438.178 781.447 437.291C781.447 436.404 781.447 436.404 782.334 435.517C784.108 435.517 784.995 434.63 786.769 434.63C787.656 434.63 787.656 434.63 788.543 435.517C788.543 436.404 788.543 436.404 787.656 437.291C785.882 437.291 784.108 438.178 782.334 438.178ZM793.865 434.63C792.978 434.63 792.978 434.63 792.978 433.743C792.978 432.856 792.978 432.856 793.865 431.969C795.639 431.082 796.526 431.082 798.3 430.195C799.187 430.195 799.187 430.195 800.074 431.082C800.074 431.969 800.074 431.969 799.187 432.856C796.526 433.743 795.639 434.63 793.865 434.63ZM803.622 429.308C803.622 429.308 802.735 429.308 802.735 428.421C802.735 427.534 802.735 427.534 802.735 426.647C803.622 425.76 805.396 424.873 806.283 423.986C807.17 423.986 807.17 423.986 808.057 423.986C808.057 424.873 808.057 424.873 808.057 425.76C807.17 427.534 805.396 428.421 803.622 429.308ZM812.492 422.212C812.492 422.212 811.605 422.212 812.492 422.212C811.605 421.325 811.605 420.438 811.605 420.438C812.492 419.551 813.379 418.664 814.266 416.89C814.266 416.003 815.153 416.003 816.04 416.89C816.927 416.89 816.927 417.777 816.04 418.664C815.153 419.551 814.266 421.325 812.492 422.212C813.379 422.212 812.492 422.212 812.492 422.212ZM819.588 413.342C818.701 412.455 818.701 412.455 818.701 411.568C819.588 410.681 820.475 408.907 821.362 408.02C821.362 407.133 822.249 407.133 823.136 408.02C824.023 408.02 824.023 408.907 823.136 409.794C822.249 410.681 821.362 412.455 820.475 413.342H819.588ZM824.91 403.585C824.023 403.585 824.023 402.698 824.023 401.811C824.91 400.037 824.91 399.15 825.797 397.376C825.797 396.489 826.684 396.489 827.571 396.489C828.458 396.489 828.458 397.376 828.458 398.263C827.571 400.037 827.571 400.924 826.684 402.698C825.797 403.585 825.797 403.585 824.91 403.585ZM829.345 392.941C828.458 392.941 828.458 392.054 828.458 391.167C829.345 389.393 829.345 388.506 829.345 386.732C829.345 385.845 830.232 385.845 831.119 385.845C832.006 385.845 832.006 386.732 832.006 387.619C832.006 389.393 831.119 390.28 831.119 392.054C830.232 392.941 830.232 392.941 829.345 392.941ZM832.006 382.297C831.119 382.297 831.119 381.41 831.119 380.523C831.119 378.749 832.006 377.862 832.006 376.088C832.006 375.201 832.893 375.201 832.893 375.201C833.78 375.201 833.78 376.088 833.78 376.088C833.78 377.862 832.893 378.749 832.893 380.523C832.893 381.41 832.893 382.297 832.006 382.297ZM833.78 370.766C832.893 370.766 832.893 369.879 832.893 369.879C832.893 368.105 832.893 367.218 832.893 365.444C832.893 364.557 833.78 364.557 833.78 364.557C834.667 364.557 834.667 365.444 834.667 365.444C834.667 367.218 834.667 368.105 834.667 369.879C834.667 370.766 834.667 370.766 833.78 370.766Z" fill="#A8CFF0"/>
<path d="M753.063 437.291C752.176 437.291 751.289 437.291 750.402 436.404C749.515 436.404 749.515 435.517 749.515 434.63C749.515 433.743 750.402 433.743 751.289 433.743C752.176 433.743 753.063 433.743 753.063 434.63C753.95 434.63 753.95 435.517 753.95 436.404L753.063 437.291Z" fill="#A8CFF0"/>
<path d="M605.822 254.569C604.935 254.569 604.935 254.569 604.935 253.682C604.935 252.795 604.935 251.908 604.935 251.021C604.935 250.134 604.935 250.134 605.822 250.134C606.709 250.134 606.709 250.134 606.709 251.021C606.709 251.908 606.709 252.795 606.709 253.682C606.709 254.569 606.709 254.569 605.822 254.569Z" fill="#A8CFF0"/>
<path d="M817.814 278.518C816.927 278.518 816.927 278.518 816.927 277.631C816.04 275.857 816.04 274.97 815.153 273.196C815.153 272.309 815.153 272.309 816.04 271.422C816.927 271.422 816.927 271.422 817.814 272.309C818.701 274.083 818.701 274.97 819.588 276.744C818.701 277.631 818.701 277.631 817.814 278.518ZM813.379 267.874C813.379 267.874 812.492 267.874 812.492 266.987C811.605 265.213 811.605 264.326 810.718 262.552C810.718 261.665 810.718 261.665 811.605 260.778C812.492 260.778 812.492 260.778 813.379 261.665C814.266 263.439 815.153 264.326 815.153 266.1C814.266 266.1 814.266 266.987 813.379 267.874ZM808.057 257.23C808.057 257.23 807.17 257.23 807.17 256.343C806.283 254.569 805.396 253.682 805.396 251.908C805.396 251.021 805.396 251.021 806.283 250.134C807.17 250.134 807.17 250.134 808.057 251.021C808.944 252.795 809.831 253.682 809.831 255.456C808.944 256.343 808.944 256.343 808.057 257.23ZM802.735 246.586C802.735 246.586 801.848 246.586 801.848 245.699C800.961 243.925 800.074 243.038 799.187 241.264C799.187 240.377 799.187 240.377 799.187 239.49C800.074 239.49 800.074 239.49 800.961 239.49C801.848 241.264 802.735 242.151 803.622 243.925C803.622 245.699 803.622 246.586 802.735 246.586ZM604.047 245.699C603.16 245.699 603.16 245.699 603.16 244.812C603.16 243.038 603.16 241.264 602.273 240.377C602.273 239.49 602.273 239.49 603.16 239.49C604.047 239.49 604.047 239.49 604.047 240.377C604.047 242.151 604.047 243.038 604.934 244.812C604.934 244.812 604.934 245.699 604.047 245.699ZM796.526 236.829C796.526 236.829 795.639 236.829 795.639 235.942C794.752 235.055 793.865 233.281 792.978 232.394C792.978 231.507 792.978 231.507 792.978 230.62C793.865 230.62 793.865 230.62 794.752 230.62C795.639 231.507 796.526 233.281 797.413 234.168C798.3 235.942 797.413 235.942 796.526 236.829C797.413 236.829 796.526 236.829 796.526 236.829ZM603.16 234.168C602.273 234.168 602.273 233.281 602.273 233.281C602.273 231.507 602.273 229.733 602.273 228.846C602.273 227.959 603.16 227.959 603.16 227.959C604.047 227.959 604.047 228.846 604.047 228.846C604.047 230.62 604.047 231.507 604.047 233.281C604.047 233.281 604.047 234.168 603.16 234.168ZM790.317 227.072C790.317 227.072 789.43 227.072 789.43 226.185C788.543 225.298 787.656 223.524 786.769 222.637C786.769 221.75 786.769 221.75 786.769 220.863C787.656 220.863 787.656 220.863 788.543 220.863C789.43 221.75 790.317 223.524 791.204 224.411C791.204 225.298 791.204 226.185 790.317 227.072ZM602.273 222.637C601.386 222.637 601.386 221.75 601.386 221.75C601.386 219.976 601.386 218.202 601.386 217.315C601.386 216.428 602.273 216.428 602.273 216.428C603.16 216.428 603.16 217.315 603.16 217.315C603.16 219.089 603.16 219.976 603.16 221.75C604.047 221.75 603.16 222.637 602.273 222.637ZM783.221 217.315C783.221 217.315 782.334 217.315 782.334 216.428C781.447 215.541 780.56 213.767 779.673 212.88C779.673 211.993 779.673 211.993 779.673 211.106C780.56 211.106 780.56 211.106 781.447 211.106C782.334 211.993 783.221 213.767 784.108 214.654C784.995 216.428 784.995 216.428 783.221 217.315C784.108 217.315 784.108 217.315 783.221 217.315ZM603.16 211.106C602.273 211.106 602.273 210.219 602.273 210.219C602.273 208.445 602.273 206.671 603.16 205.784C603.16 204.897 604.047 204.897 604.047 204.897C604.934 204.897 604.934 205.784 604.934 205.784C604.934 207.558 604.934 208.445 604.047 210.219C604.047 210.219 604.047 211.106 603.16 211.106ZM776.125 208.445H775.238C774.351 207.558 773.464 205.784 772.577 204.897C772.577 204.01 772.577 204.01 772.577 203.123C773.464 203.123 773.464 203.123 774.351 203.123C775.238 204.01 776.125 205.784 777.012 206.671C777.899 206.671 777.899 207.558 776.125 208.445C777.012 208.445 777.012 208.445 776.125 208.445ZM769.029 199.575C769.029 199.575 768.142 199.575 769.029 199.575C767.255 197.801 766.368 196.914 765.481 196.027C765.481 195.14 765.481 195.14 765.481 194.253C766.368 194.253 766.368 194.253 767.255 194.253C768.142 195.14 769.029 196.914 770.803 197.801C769.916 197.801 769.916 198.688 769.029 199.575C769.916 199.575 769.029 199.575 769.029 199.575ZM604.934 199.575C604.934 199.575 604.047 199.575 604.934 199.575C604.047 199.575 604.047 198.688 604.047 197.801C604.047 196.027 604.934 194.253 604.934 193.366C604.934 192.479 605.821 192.479 606.708 192.479C607.595 192.479 607.595 193.366 607.595 194.253C607.595 196.027 606.708 196.914 606.708 198.688C605.821 198.688 604.934 199.575 604.934 199.575ZM761.046 190.705C761.046 190.705 760.159 190.705 761.046 190.705C759.272 188.931 758.385 188.044 756.611 187.157C755.724 186.27 755.724 186.27 756.611 185.383C757.498 184.496 757.498 184.496 758.385 185.383C759.272 186.27 760.159 187.157 761.933 188.931C761.933 188.931 761.933 189.818 761.046 190.705C761.933 190.705 761.046 190.705 761.046 190.705ZM607.595 188.044C607.595 188.044 606.708 188.044 607.595 188.044C606.708 188.044 606.708 187.157 606.708 186.27C607.595 184.496 607.595 183.609 608.482 181.835C608.482 180.948 609.369 180.948 610.256 180.948C611.143 180.948 611.143 181.835 611.143 182.722C610.256 184.496 610.256 185.383 609.369 187.157C608.482 188.044 607.595 188.044 607.595 188.044ZM753.063 182.722C752.176 182.722 752.176 182.722 753.063 182.722C751.289 180.948 750.402 180.061 748.628 179.174C747.741 179.174 747.741 178.287 748.628 177.4C748.628 176.513 749.515 176.513 750.402 177.4C751.289 178.287 753.063 179.174 753.95 180.948C753.95 180.948 753.95 181.835 753.063 182.722ZM611.143 177.4C610.256 177.4 610.256 176.513 610.256 175.626C611.143 173.852 612.03 172.965 612.03 171.191C612.03 170.304 612.917 170.304 613.804 170.304C614.691 170.304 614.691 171.191 614.691 172.078C613.804 172.965 612.917 174.739 612.917 176.513C612.03 176.513 612.03 177.4 611.143 177.4ZM744.193 174.739C743.306 174.739 743.306 174.739 744.193 174.739C742.419 173.852 740.645 172.078 739.758 171.191C738.871 171.191 738.871 170.304 739.758 169.417C739.758 168.53 740.645 168.53 741.532 169.417C742.419 170.304 744.193 171.191 745.08 172.078C745.08 172.965 745.08 173.852 744.193 174.739C745.08 174.739 744.193 174.739 744.193 174.739ZM734.436 167.643C732.662 166.756 730.888 165.869 730.001 164.982C729.114 164.982 729.114 164.095 730.001 163.208C730.001 162.321 730.888 162.321 731.775 163.208C732.662 164.095 734.436 164.982 735.323 165.869C736.21 165.869 736.21 166.756 735.323 167.643C735.323 167.643 735.323 167.643 734.436 167.643ZM617.352 166.756C616.465 166.756 616.465 166.756 617.352 166.756C616.465 165.869 616.465 165.869 616.465 164.982C617.352 164.095 618.239 162.321 619.126 161.434C619.126 160.547 620.013 160.547 620.9 161.434C621.787 161.434 621.787 162.321 620.9 163.208C620.013 164.095 619.126 165.869 618.239 166.756H617.352ZM725.566 161.434C724.679 161.434 724.679 161.434 725.566 161.434C723.792 160.547 722.018 159.66 721.131 158.773C720.244 158.773 720.244 157.886 721.131 156.999C721.131 156.112 722.018 156.112 722.905 156.999C724.679 157.886 725.566 158.773 726.453 159.66C727.34 159.66 727.34 160.547 726.453 161.434C725.566 160.547 725.566 161.434 725.566 161.434ZM624.448 157.886C624.448 157.886 623.561 157.886 624.448 157.886C623.561 156.999 623.561 156.112 623.561 156.112C624.448 155.225 626.222 154.338 627.109 152.564C627.996 152.564 627.996 152.564 628.883 152.564C628.883 153.451 628.883 153.451 628.883 154.338C627.109 155.225 626.222 156.112 624.448 157.886C625.335 157.886 624.448 157.886 624.448 157.886ZM714.922 155.225C713.148 154.338 711.374 153.451 710.487 152.564C709.6 152.564 709.6 151.677 709.6 150.79C709.6 149.903 710.487 149.903 711.374 149.903C713.148 150.79 714.035 151.677 715.809 151.677C716.696 151.677 716.696 152.564 716.696 153.451C715.809 155.225 715.809 155.225 714.922 155.225ZM633.318 150.79C633.318 150.79 632.431 150.79 632.431 149.903C632.431 149.016 632.431 149.016 632.431 148.129C633.318 147.242 635.092 146.355 636.866 145.468C637.753 145.468 637.753 145.468 638.64 146.355C638.64 147.242 638.64 147.242 637.753 148.129C636.866 149.016 635.092 149.903 633.318 150.79C634.205 150.79 633.318 150.79 633.318 150.79ZM705.165 149.903C704.278 149.903 704.278 149.903 705.165 149.903C703.391 149.016 701.617 149.016 700.73 148.129C699.843 148.129 699.843 147.242 699.843 146.355C699.843 145.468 700.73 145.468 701.617 145.468C703.391 146.355 704.278 146.355 706.052 147.242C706.939 147.242 706.939 148.129 706.939 149.016C706.052 149.903 705.165 149.903 705.165 149.903ZM693.634 145.468C691.86 144.581 690.086 144.581 689.199 143.694C688.312 143.694 688.312 142.807 688.312 141.92C688.312 141.033 689.199 141.033 690.086 141.033C691.86 141.033 692.747 141.92 694.521 142.807C695.408 142.807 695.408 143.694 695.408 144.581C694.521 145.468 694.521 145.468 693.634 145.468ZM643.962 145.468C643.075 145.468 643.075 145.468 643.075 144.581C643.075 143.694 643.075 143.694 643.962 142.807C645.736 141.92 646.623 141.92 648.397 141.033C649.284 141.033 649.284 141.033 650.171 141.92C650.171 142.807 650.171 142.807 649.284 143.694C646.623 143.694 645.736 144.581 643.962 145.468ZM682.99 142.807C682.99 142.807 682.103 142.807 682.99 142.807C681.216 142.807 679.442 141.92 678.555 141.92C677.668 141.92 677.668 141.033 677.668 141.033C677.668 140.146 678.555 140.146 678.555 140.146C680.329 140.146 681.216 141.033 682.99 141.033C683.877 141.033 683.877 141.92 683.877 142.807H682.99ZM654.606 141.92C653.719 141.92 653.719 141.92 653.719 141.033C653.719 140.146 653.719 140.146 654.606 139.259C656.38 139.259 658.154 138.372 659.041 138.372C659.928 138.372 659.928 138.372 659.928 139.259C659.928 140.146 659.928 140.146 659.041 140.146C658.154 141.92 656.38 141.92 654.606 141.92ZM671.459 141.033C669.685 141.033 667.911 141.033 667.024 141.033C666.137 141.033 666.137 140.146 666.137 140.146C666.137 139.259 667.024 139.259 667.024 139.259C668.798 139.259 670.572 139.259 671.459 139.259C672.346 139.259 672.346 140.146 672.346 140.146C672.346 141.033 671.459 141.033 671.459 141.033Z" fill="#A8CFF0"/>
<path d="M821.362 287.388C820.475 287.388 820.475 287.388 820.475 286.501L819.588 283.84C819.588 282.953 819.588 282.953 820.475 282.066C821.362 282.066 821.362 282.066 822.249 282.953L823.136 284.727C822.249 286.501 822.249 286.501 821.362 287.388Z" fill="#A8CFF0"/>
<path d="M779.674 458.579C778.787 458.579 778.787 458.579 778.787 457.692C778.787 456.805 777.9 455.918 777.9 455.918C777.9 455.031 777.9 455.031 778.787 454.144C779.674 454.144 779.674 454.144 780.561 455.031C780.561 455.918 781.448 456.805 781.448 456.805C780.561 457.692 780.561 458.579 779.674 458.579Z" fill="#4756EA"/>
<path d="M747.742 565.906C745.968 565.906 744.194 565.906 743.307 565.906C742.42 565.906 742.42 565.019 742.42 565.019C742.42 564.132 743.307 564.132 743.307 564.132C745.081 564.132 745.968 564.132 747.742 564.132C748.629 564.132 748.629 565.019 748.629 565.019C748.629 565.019 748.629 565.906 747.742 565.906ZM753.951 565.906C753.064 565.906 753.064 565.906 753.064 565.019C753.064 564.132 753.064 564.132 753.951 564.132C755.725 564.132 756.612 563.245 758.386 563.245C759.273 563.245 759.273 563.245 760.16 564.132C760.16 565.019 760.16 565.019 759.273 565.906C757.499 565.019 755.725 565.019 753.951 565.906C754.838 565.906 754.838 565.906 753.951 565.906ZM736.211 565.019C734.437 565.019 732.663 564.132 731.776 564.132C730.889 564.132 730.889 563.245 730.889 562.358C730.889 561.471 731.776 561.471 732.663 561.471C734.437 561.471 735.324 562.358 737.098 562.358C737.985 562.358 737.985 563.245 737.985 564.132C737.098 564.132 737.098 565.019 736.211 565.019ZM765.482 562.358C765.482 562.358 764.595 562.358 764.595 561.471C764.595 560.584 764.595 560.584 765.482 559.697C766.369 558.81 768.143 557.923 769.03 557.923C769.917 557.923 769.917 557.923 770.804 557.923C770.804 558.81 770.804 558.81 770.804 559.697C768.143 560.584 767.256 561.471 765.482 562.358ZM725.567 561.471C725.567 561.471 724.68 561.471 725.567 561.471C723.793 560.584 722.019 560.584 721.132 559.697C720.245 559.697 720.245 558.81 720.245 557.923C720.245 557.036 721.132 557.036 722.019 557.036C723.793 557.923 724.68 557.923 726.454 558.81C727.341 558.81 727.341 559.697 727.341 560.584C726.454 561.471 725.567 561.471 725.567 561.471ZM774.352 556.149C773.465 555.262 773.465 554.375 773.465 554.375C774.352 553.488 775.239 552.601 776.126 550.827C776.126 549.94 777.013 549.94 777.9 550.827C778.787 550.827 778.787 551.714 777.9 552.601C777.9 553.488 777.013 554.375 774.352 556.149C775.239 556.149 775.239 556.149 774.352 556.149ZM781.448 547.279C780.561 546.392 780.561 545.505 780.561 545.505C781.448 544.618 782.335 542.844 782.335 541.957C782.335 541.07 783.222 541.07 784.109 541.07C784.996 541.07 784.996 541.957 784.996 542.844C784.109 544.618 783.222 545.505 782.335 547.279C782.335 547.279 782.335 547.279 781.448 547.279ZM786.77 536.635C785.883 536.635 785.883 535.748 785.883 534.861C786.77 533.087 786.77 532.2 786.77 530.426C786.77 529.539 787.657 529.539 788.544 529.539C789.431 529.539 789.431 530.426 789.431 531.313C789.431 533.087 788.544 533.974 787.657 535.748C787.657 536.635 786.77 536.635 786.77 536.635ZM789.431 525.991C788.544 525.991 788.544 525.104 788.544 524.217C788.544 522.443 788.544 521.556 789.431 519.782C789.431 518.895 790.318 518.895 790.318 518.895C791.205 518.895 791.205 519.782 791.205 519.782C791.205 521.556 791.205 522.443 790.318 524.217C790.318 525.104 790.318 525.991 789.431 525.991ZM790.318 514.46C789.431 514.46 789.431 513.573 789.431 513.573C789.431 512.686 789.431 511.799 789.431 510.025V508.251C789.431 507.364 790.318 507.364 790.318 507.364C791.205 507.364 791.205 508.251 791.205 508.251V510.025C791.205 510.912 791.205 511.799 791.205 513.573C791.205 513.573 791.205 514.46 790.318 514.46ZM790.318 502.929C789.431 502.929 789.431 502.042 789.431 502.042C789.431 500.268 789.431 499.381 789.431 497.607C789.431 496.72 789.431 496.72 790.318 496.72C791.205 496.72 791.205 496.72 791.205 497.607C791.205 499.381 791.205 500.268 791.205 502.042C791.205 502.042 791.205 502.929 790.318 502.929ZM788.544 491.398C787.657 491.398 787.657 491.398 787.657 490.511C787.657 488.737 786.77 487.85 786.77 486.076C786.77 485.189 786.77 485.189 787.657 484.302C788.544 484.302 788.544 484.302 789.431 485.189C789.431 486.963 790.318 487.85 790.318 489.624C790.318 490.511 789.431 491.398 788.544 491.398ZM786.77 480.754C785.883 480.754 785.883 480.754 785.883 479.867C785.883 478.093 784.996 477.206 784.996 475.432C784.996 474.545 784.996 474.545 785.883 473.658C786.77 473.658 786.77 473.658 787.657 474.545C787.657 476.319 788.544 477.206 788.544 478.98C787.657 479.867 787.657 479.867 786.77 480.754ZM783.222 469.223C782.335 469.223 782.335 469.223 782.335 468.336C781.448 466.562 781.448 465.675 780.561 463.901C780.561 463.014 780.561 463.014 781.448 462.127C782.335 462.127 782.335 462.127 783.222 463.014C784.109 464.788 784.109 465.675 784.996 467.449C784.996 468.336 784.109 469.223 783.222 469.223Z" fill="#4756EA"/>
<path d="M714.923 556.149C714.036 555.262 713.149 555.262 712.262 555.262C711.375 555.262 711.375 554.375 712.262 553.488C712.262 552.601 713.149 552.601 714.036 553.488C714.923 553.488 714.923 554.375 715.81 554.375C716.697 554.375 716.697 555.262 716.697 556.149C715.81 556.149 715.81 556.149 714.923 556.149Z" fill="#4756EA"/>
<path d="M777.012 460.353C776.125 460.353 776.125 459.466 776.125 459.466V453.257C776.125 453.257 776.125 452.37 777.012 452.37H777.899L783.221 455.918C784.108 455.918 784.108 456.805 783.221 457.692C783.221 458.579 782.334 458.579 781.447 457.692L777.899 455.031V459.466L777.012 460.353Z" fill="#4756EA"/>
<path d="M359.236 256.343C359.236 248.36 348.592 243.038 335.287 243.038C321.982 243.038 311.338 249.247 311.338 256.343C311.338 263.439 320.208 268.761 331.739 269.648V273.196C329.965 273.196 328.191 274.97 328.191 275.857V289.162C328.191 290.936 330.852 291.823 333.513 291.823H337.061C339.722 291.823 342.383 290.936 342.383 289.162V275.857C342.383 274.083 340.609 273.196 338.835 273.196V269.648C350.366 268.761 359.236 262.552 359.236 256.343Z" fill="white"/>
<path d="M645.737 791.204L234.169 553.488C218.203 544.618 204.898 519.782 204.898 498.494V124.18C204.898 102.892 218.203 93.135 234.169 102.005L645.737 339.721C661.703 348.591 675.008 373.427 675.008 394.715V769.029C675.008 790.317 661.703 800.074 645.737 791.204Z" fill="#D1EBFF"/>
<path d="M657.268 333.512L245.7 95.796C239.491 92.248 233.282 91.361 228.847 93.135C227.96 93.135 217.316 99.344 216.429 99.344C221.751 96.683 227.96 97.57 234.169 101.118L645.737 338.834C661.703 347.704 675.008 372.54 675.008 393.828V768.142C675.008 781.447 669.686 790.317 662.59 792.978C663.477 792.978 664.364 792.978 665.251 792.091L677.669 784.995C682.991 781.447 686.539 773.464 686.539 761.933V388.506C685.652 367.218 673.234 343.269 657.268 333.512Z" fill="#3F92D1"/>
<path d="M653.72 335.286L242.152 97.57C235.943 94.022 229.734 93.135 225.299 94.909C224.412 94.909 216.429 99.344 216.429 99.344C221.751 96.683 227.96 97.57 234.169 101.118L645.737 338.834L653.72 335.286Z" fill="#4F9FDB"/>
<path d="M647.511 338.834L235.943 101.118C229.734 97.57 223.525 96.683 218.203 98.457C222.638 97.57 227.073 98.457 232.395 102.005L643.963 339.721C659.929 348.591 673.234 373.427 673.234 394.715V769.029C673.234 781.447 668.799 790.317 661.703 792.978C670.573 791.204 676.782 782.334 676.782 768.142V393.828C675.895 372.54 663.477 348.591 647.511 338.834Z" fill="white"/>
<path d="M221.751 156.999V497.607C221.751 514.46 229.734 530.426 242.152 538.409L649.285 773.464C649.285 773.464 649.285 773.464 650.172 773.464C653.72 775.238 658.155 772.577 658.155 769.029V409.794L221.751 156.999Z" fill="#03336E"/>
<path d="M658.155 771.69C657.268 771.69 657.268 771.69 658.155 771.69L250.135 535.748C237.717 527.765 229.734 510.912 229.734 494.946V161.434L221.751 156.999V497.607C221.751 514.46 229.734 530.426 242.152 538.409L649.285 773.464C649.285 773.464 649.285 773.464 650.172 773.464C653.72 776.125 657.268 775.238 658.155 771.69Z" fill="#001A46"/>
<path d="M635.093 368.105C635.093 373.427 638.641 379.636 643.076 381.41C647.511 384.071 651.059 382.297 651.059 376.975C651.059 371.653 647.511 365.444 643.076 363.67C638.641 361.009 635.093 363.67 635.093 368.105Z" fill="#FFCC00"/>
<path d="M614.692 356.574C614.692 361.896 618.24 368.105 622.675 369.879C627.11 372.54 630.658 370.766 630.658 365.444C630.658 360.122 627.11 353.913 622.675 352.139C618.24 349.478 614.692 351.252 614.692 356.574Z" fill="#4756EA"/>
<path d="M594.291 345.043C594.291 350.365 597.839 356.574 602.274 358.348C606.709 361.009 610.257 359.235 610.257 353.913C610.257 348.591 606.709 342.382 602.274 340.608C597.839 337.947 594.291 339.721 594.291 345.043Z" fill="#0FBAB8"/>
<path d="M490.511 333.512L460.354 316.659C457.693 314.885 455.031 316.659 455.031 320.207C455.031 323.755 457.693 328.19 460.354 329.964L490.511 346.817C493.172 348.591 495.834 346.817 495.834 343.269C495.834 338.834 493.172 335.286 490.511 333.512ZM539.296 361.896L509.139 345.043C506.478 343.269 503.816 345.043 503.816 348.591C503.816 352.139 506.478 356.574 509.139 358.348L539.296 375.201C541.957 376.975 544.619 375.201 544.619 371.653C544.619 367.218 541.957 363.67 539.296 361.896ZM588.082 390.28L558.81 372.54C556.149 370.766 553.489 372.54 553.489 376.088C553.489 379.636 556.149 384.071 558.81 385.845L588.969 402.698C591.63 404.472 594.29 402.698 594.29 399.15C594.29 395.602 591.63 392.054 588.082 390.28ZM637.753 418.664L607.595 401.811C604.934 400.037 602.273 401.811 602.273 405.359C602.273 408.907 604.934 413.342 607.595 415.116L637.753 431.969C640.414 433.743 643.075 431.969 643.075 428.421C643.075 423.986 640.414 420.438 637.753 418.664Z" fill="#72B5E8"/>
<path d="M371.653 358.348V486.076L385.845 478.093V349.478L371.653 358.348Z" fill="#2672AB"/>
<path d="M371.653 358.348V486.076L91.3614 325.529V196.914L371.653 358.348Z" fill="#3F92D1"/>
<path d="M91.3614 196.914L371.653 358.348L385.845 349.478L105.553 188.044L91.3614 196.914Z" fill="#72B5E8"/>
<path opacity="0.7" d="M91.3614 196.914L371.653 358.348L385.845 349.478L371.653 355.687L91.3614 196.914Z" fill="white"/>
<path d="M330.851 439.952V434.63L242.151 384.071V389.393L330.851 439.952Z" fill="white"/>
<path d="M204.01 282.953V288.275L353.026 373.427V367.218L204.01 282.953Z" fill="white"/>
<path d="M256.343 358.348L204.01 328.19V333.512L256.343 363.67V358.348Z" fill="white"/>
<path d="M291.823 400.924V407.133L313.111 418.664V413.342L291.823 400.924Z" fill="white"/>
<path d="M288.275 353.913L204.01 305.128V310.45L288.275 359.235V353.913Z" fill="white"/>
<path d="M235.055 334.399L204.01 316.659V321.981L235.055 339.721V334.399Z" fill="white"/>
<path d="M227.072 368.992L286.501 403.585V398.263L227.072 363.67V368.992Z" fill="white"/>
<path d="M240.377 337.947V343.269L323.755 390.28V384.958L240.377 337.947Z" fill="white"/>
<path d="M261.665 361.009V366.331L303.354 391.167V384.958L261.665 361.009Z" fill="white"/>
<path d="M221.75 361.009L204.01 350.365V355.687L221.75 366.331V361.009Z" fill="white"/>
<path d="M293.597 362.783L353.026 395.602V390.28L293.597 357.461V362.783Z" fill="white"/>
<path d="M329.077 393.828L353.026 407.133V401.811L329.077 387.619V393.828Z" fill="white"/>
<path d="M204.01 298.919L353.026 384.071V378.749L204.01 293.597V298.919Z" fill="white"/>
<path d="M308.676 393.828L353.026 418.664V413.342L308.676 388.506V393.828Z" fill="white"/>
<path d="M236.829 380.523L204.01 361.896V367.218L236.829 386.732V380.523Z" fill="white"/>
<path d="M336.173 442.613L353.026 452.37V447.048L336.173 437.291V442.613Z" fill="white"/>
<path d="M318.433 421.325L353.026 440.839V435.517L318.433 416.003V421.325Z" fill="white"/>
<path d="M204.01 345.043L353.026 430.195V423.986L204.01 338.834V345.043Z" fill="white"/>
<path d="M172.965 260.778L124.18 232.394C115.31 227.072 109.101 232.394 109.101 243.925V300.693C109.101 312.224 116.197 325.529 124.18 329.964L172.965 358.348C181.835 363.67 188.044 358.348 188.044 346.817V290.049C188.044 279.405 180.948 266.1 172.965 260.778Z" fill="#2672AB"/>
<path d="M179.174 353.913L130.389 325.529C121.519 320.207 115.31 307.789 115.31 296.258V239.49C115.31 235.942 116.197 233.281 117.084 230.62C112.649 231.507 109.101 235.942 109.101 243.925V300.693C109.101 312.224 116.197 325.529 124.18 329.964L172.965 358.348C179.174 361.896 183.609 360.122 186.27 355.687C184.496 356.574 181.835 355.687 179.174 353.913Z" fill="#084C94"/>
<path d="M134.824 276.744L86.039 248.36C77.169 243.038 70.96 248.36 70.96 259.891V316.659C70.96 328.19 78.056 341.495 86.039 345.93L134.824 374.314C143.694 379.636 149.903 374.314 149.903 362.783V306.015C149.903 295.371 143.694 282.066 134.824 276.744Z" fill="#0FBAB8"/>
<path d="M142.807 272.309L94.022 243.925C90.474 242.151 86.926 241.264 84.265 243.038L75.395 248.36C78.056 246.586 81.604 246.586 86.039 249.247L134.824 277.631C143.694 282.953 149.903 295.371 149.903 306.902V363.67C149.903 368.992 148.129 373.427 145.468 375.201L149.903 371.653C153.451 368.992 157.886 365.444 157.886 358.348V301.58C157.886 290.049 151.677 276.744 142.807 272.309Z" fill="#0BA19F"/>
<path opacity="0.7" d="M135.711 275.857L86.9259 247.473C82.4909 244.812 78.9429 244.812 76.2819 247.473C78.9429 246.586 81.6039 246.586 85.1519 248.36L133.937 276.744C142.807 282.066 149.016 294.484 149.016 306.015V363.67C149.016 368.992 147.242 373.427 144.581 376.088C148.129 374.314 150.79 369.879 150.79 362.783V306.015C150.79 294.484 144.581 281.179 135.711 275.857Z" fill="white"/>
<path d="M83.3782 264.326V329.077L136.598 360.122V295.371L83.3782 264.326ZM133.05 353.913L86.9262 327.303V270.535L133.05 297.145V353.913Z" fill="white"/>
<path d="M125.067 306.015C125.067 310.45 122.406 312.224 117.971 309.563C114.423 307.789 110.875 302.467 110.875 298.032C110.875 293.597 113.536 291.823 117.971 294.484C121.519 297.145 125.067 302.467 125.067 306.015Z" fill="white"/>
<path d="M85.1519 311.337L99.3438 293.597L112.649 329.077L123.293 321.094L134.824 351.252L133.937 354.8L85.1519 328.19V311.337Z" fill="white"/>
<path d="M731.776 313.998C731.776 322.868 729.115 329.077 723.793 331.738L714.923 337.06C709.601 339.721 713.149 333.512 705.166 329.077C689.2 320.207 676.782 298.032 676.782 280.292C676.782 271.422 668.799 271.422 673.234 268.761L682.991 263.439C688.313 260.778 695.409 260.778 702.505 265.213C719.358 274.083 731.776 296.258 731.776 313.998Z" fill="#FFCC00"/>
<path d="M695.409 269.648C688.313 265.213 681.217 264.326 675.895 266.987C680.33 266.1 686.539 266.987 692.748 270.535C708.714 279.405 721.132 301.58 721.132 319.32C721.132 329.077 717.584 335.286 712.262 337.947C719.358 336.173 723.793 329.077 723.793 318.433C723.793 300.693 711.375 279.405 695.409 269.648Z" fill="white"/>
<path d="M722.906 319.32C722.906 337.06 710.488 345.043 694.522 335.286C678.556 326.416 666.138 304.241 666.138 286.501C666.138 268.761 678.556 260.778 694.522 270.535C710.488 279.405 722.906 301.58 722.906 319.32Z" fill="#FFD70F"/>
<path d="M689.2 291.823C689.2 294.484 687.426 295.371 684.765 294.484C682.991 293.597 680.33 290.049 680.33 287.388C680.33 284.727 682.104 283.84 684.765 284.727C687.426 285.614 689.2 289.162 689.2 291.823Z" fill="#D99F00"/>
<path d="M705.166 300.693C705.166 303.354 703.392 304.241 700.731 303.354C698.957 302.467 696.296 298.919 696.296 296.258C696.296 293.597 698.07 292.71 700.731 293.597C703.392 295.371 705.166 298.032 705.166 300.693Z" fill="#D99F00"/>
<path d="M678.556 302.467L682.104 303.354C683.878 309.563 688.313 316.659 693.635 319.32C698.957 321.981 703.392 321.094 705.166 316.659L708.714 320.207C706.053 325.529 700.731 327.303 693.635 323.755C686.539 319.32 680.33 310.45 678.556 302.467Z" fill="#D99F00"/>
<path d="M686.538 292.71C684.764 291.823 682.104 288.275 682.104 285.614C682.104 284.727 682.104 283.84 682.99 283.84C682.104 283.84 681.217 284.727 681.217 286.501C681.217 289.162 682.991 291.823 685.651 293.597C687.425 294.484 688.312 294.484 689.199 293.597C688.312 293.597 687.425 293.597 686.538 292.71Z" fill="#B08100"/>
<path d="M702.505 302.467C700.731 301.58 698.07 298.032 698.07 295.371C698.07 294.484 698.07 293.597 698.957 293.597C698.07 293.597 697.183 294.484 697.183 296.258C697.183 298.919 698.957 301.58 701.618 303.354C703.392 304.241 704.279 304.241 705.166 303.354C704.279 303.354 703.392 302.467 702.505 302.467Z" fill="#B08100"/>
<path d="M705.166 316.659C704.279 317.546 703.392 318.433 703.392 318.433C704.279 318.433 704.279 317.546 705.166 316.659Z" fill="#B08100"/>
<path d="M694.522 321.981C688.313 318.433 682.104 310.45 679.443 301.58H677.669C680.33 310.45 685.652 318.433 692.748 322.868C698.07 325.529 702.505 325.529 705.166 322.868C703.392 324.642 698.957 324.642 694.522 321.981Z" fill="#B08100"/>
<path d="M718.47 596.951V753.95L731.775 745.08V588.081L718.47 596.951Z" fill="#2672AB"/>
<path d="M718.47 596.951V753.95L411.568 577.437V420.438L718.47 596.951Z" fill="#3F92D1"/>
<path d="M411.568 420.438L718.47 596.951L731.775 588.081L424.873 412.455L411.568 420.438Z" fill="#72B5E8"/>
<path opacity="0.7" d="M411.568 420.438L718.47 596.951L731.775 588.081L718.47 595.177L411.568 420.438Z" fill="white"/>
<path d="M699.843 665.25C699.843 695.408 678.555 707.826 651.945 692.747C625.335 677.668 604.047 640.414 604.047 609.369C604.047 578.324 625.335 566.793 651.945 581.872C677.668 597.838 699.843 635.092 699.843 665.25Z" fill="#2672AB"/>
<path d="M656.38 689.199C629.77 674.12 608.482 636.866 608.482 605.821C608.482 594.29 611.143 585.42 616.465 580.098C608.482 585.42 603.16 595.177 603.16 610.256C603.16 640.414 624.448 677.668 651.058 693.634C667.911 703.391 682.103 701.617 690.973 691.86C682.99 697.182 669.685 697.182 656.38 689.199Z" fill="#084C94"/>
<path d="M516.234 506.477L505.59 500.268V617.352L516.234 623.561V506.477ZM531.313 501.155L520.669 494.946V626.222L531.313 632.431V501.155ZM546.392 526.878L535.748 520.669V634.205L546.392 640.414V526.878ZM475.432 535.748V599.612L486.076 605.821V541.07L475.432 535.748ZM501.155 518.008L490.511 511.799V608.482L501.155 614.691V518.008ZM561.471 559.697L550.827 553.488V643.075L561.471 649.284V559.697ZM576.55 596.951L565.906 590.742V651.945L576.55 658.154V596.951ZM470.11 524.217L459.466 518.008V589.855L470.11 596.064V524.217ZM429.308 528.652V572.115L439.952 578.324V534.861L429.308 528.652ZM455.031 511.799L444.387 505.59V580.985L455.031 587.194V511.799Z" fill="#2672AB"/>
<path d="M516.234 552.601L505.59 546.392V617.352L516.234 623.561V552.601ZM531.313 520.669L520.669 514.46V626.222L531.313 632.431V520.669ZM546.392 548.166L535.748 541.957V635.092L546.392 641.301V548.166ZM475.432 550.827V599.612L486.076 605.821V557.036L475.432 550.827ZM501.155 549.053L490.511 542.844V607.595L501.155 613.804V549.053ZM470.11 530.426L459.466 524.217V589.855L470.11 596.064V530.426ZM429.308 559.697V572.115L439.952 578.324V565.906L429.308 559.697ZM455.031 559.697L444.387 553.488V580.985L455.031 587.194V559.697ZM561.471 576.55L550.827 570.341V643.075L561.471 649.284V576.55ZM576.55 605.821L565.906 599.612V651.945L576.55 658.154V605.821Z" fill="#A8CFF0"/>
<path d="M546.392 549.053L536.635 542.844V541.957L546.392 548.166V549.053Z" fill="white"/>
<path d="M531.313 521.556L520.669 515.347V514.46L531.313 520.669V521.556Z" fill="white"/>
<path d="M576.55 606.708L565.906 601.386V599.612L576.55 605.821V606.708Z" fill="white"/>
<path d="M516.234 553.488L505.59 548.166V546.392L516.234 552.601V553.488Z" fill="white"/>
<path d="M561.471 577.437L550.827 571.228V570.341L561.471 576.55V577.437Z" fill="white"/>
<path d="M455.031 560.584L444.387 554.375V553.488L455.031 559.697V560.584Z" fill="white"/>
<path d="M470.11 531.313L459.466 525.104V524.217L470.11 530.426V531.313Z" fill="white"/>
<path d="M439.952 565.019V566.793L429.308 560.584V559.697L439.952 565.019Z" fill="white"/>
<path d="M501.155 549.94L490.511 544.618V542.844L501.155 549.053V549.94Z" fill="white"/>
<path d="M485.189 557.923L475.432 552.601V550.827L485.189 557.036V557.923Z" fill="white"/>
<path d="M604.047 617.352C604.934 594.29 621.788 585.42 642.189 596.951C652.833 603.16 662.59 613.804 669.686 625.335L677.669 623.561C668.799 607.595 656.38 594.29 643.075 586.307C617.352 571.228 596.064 582.759 596.064 612.917L602.273 618.239L604.047 617.352Z" fill="#FFCC00"/>
<path d="M660.815 689.199C655.493 690.086 648.397 688.312 642.188 683.877C622.674 672.346 606.708 646.623 604.047 623.561L595.177 619.126L592.516 620.013C595.177 648.397 618.239 680.329 643.075 694.521C651.945 699.843 658.154 702.504 665.25 701.617C665.25 701.617 667.911 700.73 668.798 700.73L660.815 689.199Z" fill="#FFCC00"/>
<path d="M672.346 632.431C676.781 642.188 679.442 652.832 679.442 662.589C679.442 676.781 674.12 685.651 665.25 688.312L671.459 699.843C682.103 696.295 689.199 684.764 689.199 667.911C689.199 656.38 685.651 643.075 680.329 630.657L672.346 632.431Z" fill="#FFCC00"/>
<path d="M655.493 651.945C652.832 650.171 651.058 646.623 648.397 643.962C647.51 642.188 647.51 640.414 648.397 639.527C650.171 638.64 651.058 637.753 651.945 635.979C652.832 635.979 654.606 635.979 654.606 634.205C654.606 632.431 653.719 630.657 652.832 629.77C652.832 622.674 650.171 615.578 642.188 611.143C639.527 609.369 636.866 609.369 635.979 609.369L632.431 610.256C630.657 611.143 632.431 613.804 632.431 617.352C631.544 617.352 630.657 618.239 630.657 620.013C630.657 621.787 632.431 623.561 633.318 624.448C634.205 627.109 635.092 629.77 636.866 632.431C637.753 634.205 637.753 635.979 636.866 636.866C635.092 637.753 632.431 637.753 629.77 636.866C628.883 636.866 627.996 636.866 627.109 636.866C627.109 636.866 624.449 637.753 623.562 637.753C621.788 638.64 623.562 639.527 623.562 642.188V649.284C623.562 651.058 624.448 651.945 625.335 652.832L656.38 673.233C657.267 673.233 659.928 672.346 659.928 672.346C660.815 672.346 660.815 671.459 660.815 670.572V663.476C660.815 659.928 658.154 654.606 655.493 651.945Z" fill="#FFCC00"/>
<path d="M602.273 618.239C603.16 595.177 620.013 586.307 640.414 597.838C651.058 604.047 660.815 614.691 667.911 626.222L675.894 624.448C667.024 608.482 654.606 595.177 641.301 587.194C615.578 572.115 594.29 583.646 594.29 613.804L602.273 618.239Z" fill="white"/>
<path d="M659.041 690.086C653.719 690.973 646.623 689.199 640.414 684.764C620.9 673.233 604.934 647.51 602.273 624.448L593.403 620.013C596.064 648.397 616.465 681.216 640.414 695.408C649.284 700.73 658.154 702.504 665.25 701.617L659.041 690.086Z" fill="white"/>
<path d="M670.572 633.318C675.007 643.075 677.668 653.719 677.668 663.476C677.668 677.668 672.346 686.538 663.476 689.199L669.685 700.73C680.329 697.182 687.425 685.651 687.425 668.798C687.425 657.267 683.877 643.962 678.555 631.544L670.572 633.318Z" fill="white"/>
<path d="M652.832 651.945C650.171 650.171 648.397 646.623 645.736 643.962C644.849 642.188 644.849 640.414 645.736 639.527C647.51 638.64 648.397 637.753 649.284 635.979C650.171 635.979 651.945 635.979 651.945 634.205C651.945 632.431 651.058 630.657 650.171 629.77C650.171 622.674 647.51 615.578 639.527 611.143C631.544 606.708 628.883 611.143 628.883 617.352C627.996 617.352 627.109 618.239 627.109 620.013C627.109 621.787 628.883 623.561 629.77 624.448C630.657 627.109 631.544 629.77 633.318 632.431C634.205 634.205 634.205 635.979 633.318 636.866C631.544 637.753 628.883 637.753 626.222 636.866C623.561 635.979 620.9 638.64 620.9 642.188V649.284C620.9 651.058 621.787 651.945 622.674 652.832L656.38 672.346C657.267 673.233 658.154 672.346 658.154 671.459V664.363C659.041 659.928 656.38 655.493 652.832 651.945Z" fill="white"/>
<path d="M600.499 618.239C601.386 595.177 618.239 586.307 638.64 597.838C649.284 604.047 659.041 614.691 666.137 626.222L674.12 624.448C665.25 608.482 652.832 595.177 639.527 587.194C613.804 572.115 592.516 583.646 592.516 613.804L600.499 618.239Z" fill="#FFDE17"/>
<path d="M658.154 690.086C652.832 690.973 645.736 689.199 639.527 684.764C620.013 673.233 604.047 647.51 601.386 624.448L592.516 620.013C595.177 648.397 615.578 681.216 639.527 695.408C648.397 700.73 657.267 702.504 664.363 701.617L658.154 690.086Z" fill="#FFDE17"/>
<path d="M669.686 633.318C674.121 643.075 676.782 653.719 676.782 663.476C676.782 677.668 671.46 686.538 662.59 689.199L668.799 700.73C679.443 697.182 686.539 685.651 686.539 668.798C686.539 657.267 682.991 643.962 677.669 631.544L669.686 633.318Z" fill="#FFDE17"/>
<path d="M651.945 652.832C649.284 651.058 647.51 647.51 644.849 644.849C643.962 643.075 643.962 641.301 644.849 640.414C646.623 639.527 647.51 638.64 648.397 636.866C649.284 636.866 651.058 636.866 651.058 635.092C651.058 633.318 650.171 631.544 649.284 630.657C649.284 623.561 646.623 616.465 638.64 612.03C630.657 607.595 627.996 612.03 627.996 618.239C627.109 618.239 626.222 619.126 626.222 620.9C626.222 622.674 627.996 624.448 628.883 625.335C629.77 627.996 630.657 630.657 632.431 633.318C633.318 635.092 633.318 636.866 632.431 637.753C630.657 638.64 627.996 638.64 625.335 637.753C621.787 636.866 619.126 638.64 619.126 643.075V650.171C619.126 651.945 620.013 652.832 620.9 653.719L654.606 673.233C655.493 674.12 656.38 673.233 656.38 672.346V665.25C657.267 660.815 655.493 655.493 651.945 652.832Z" fill="#FFDE17"/>
<path d="M413.343 557.036V622.674L423.987 617.352V550.827L413.343 557.036Z" fill="#0BA19F"/>
<path d="M413.343 557.036V622.674L170.305 482.528V416.89L413.343 557.036Z" fill="#0FBAB8"/>
<path d="M170.305 416.89L413.343 557.036L423.987 550.827L180.949 410.681L170.305 416.89Z" fill="#3ECFCD"/>
<path opacity="0.7" d="M170.305 416.89L413.343 557.036L423.987 550.827L413.343 555.262L170.305 416.89Z" fill="white"/>
<path d="M400.925 603.16L181.836 475.432V436.404L400.925 564.132V603.16Z" fill="white"/>
<path d="M190.706 447.935L195.141 450.596L196.915 471.884L198.689 453.257L204.011 455.918L205.785 477.206L207.559 458.579L211.107 461.24L208.446 486.963L204.011 483.415L202.237 465.675L200.463 481.641L194.254 478.093L190.706 447.935Z" fill="#084C94"/>
<path d="M217.316 463.014L221.751 465.675L223.525 486.963L225.299 468.336L230.621 470.997L232.395 492.285L234.169 473.658L237.717 476.319L235.056 502.042L230.621 498.494L228.847 480.754L227.073 496.72L220.864 493.172L217.316 463.014Z" fill="#084C94"/>
<path d="M243.926 478.093L248.361 480.754L250.135 502.042L251.909 483.415L257.231 486.076L259.005 507.364L260.779 488.737L264.327 491.398L261.666 517.121L257.231 513.573L255.457 495.833L253.683 511.799L247.474 508.251L243.926 478.093Z" fill="#084C94"/>
<path d="M280.292 219.089V265.213L287.388 261.665V214.654L280.292 219.089Z" fill="#FFCC00"/>
<path d="M280.292 219.089V265.213L239.49 241.264V195.14L280.292 219.089Z" fill="#FFD70F"/>
<path d="M239.49 195.14L280.292 219.089L287.388 214.654L246.586 191.592L239.49 195.14Z" fill="#FFDE17"/>
<path d="M239.49 195.14L280.292 219.089L287.388 214.654L280.292 217.315L239.49 195.14Z" fill="white"/>
<path d="M316.659 204.01V278.518L327.303 272.309V196.914L316.659 204.01Z" fill="#3A4591"/>
<path d="M250.134 164.982L316.659 204.01L327.303 196.914L261.665 158.773L250.134 164.982Z" fill="#4756EA"/>
<path opacity="0.7" d="M250.134 164.982L316.659 204.01L327.303 196.914L316.659 202.236L250.134 164.982Z" fill="white"/>
<path d="M250.134 164.982V196.027L285.614 216.428V259.891L316.659 278.518V204.01L250.134 164.982Z" fill="#4756EA"/>
<path d="M457.692 383.184V434.63L464.788 430.195V378.749L457.692 383.184Z" fill="#0BA19F"/>
<path d="M457.692 383.184V434.63L411.568 408.02V356.574L457.692 383.184Z" fill="#0FBAB8"/>
<path d="M411.568 356.574L457.692 383.184L464.788 378.749L419.551 352.139L411.568 356.574Z" fill="#3ECFCD"/>
<path opacity="0.7" d="M411.568 356.574L457.692 383.184L464.788 378.749L456.805 380.523L411.568 356.574Z" fill="white"/>
<path d="M517.121 417.777V469.223L525.104 464.788V413.342L517.121 417.777Z" fill="#0BA19F"/>
<path d="M517.122 417.777V469.223L471.885 442.613V391.167L517.122 417.777Z" fill="#0FBAB8"/>
<path d="M471.885 391.167L517.122 417.777L525.105 413.342L478.981 386.732L471.885 391.167Z" fill="#3ECFCD"/>
<path opacity="0.7" d="M471.885 391.167L517.122 417.777L525.105 413.342L517.122 415.116L471.885 391.167Z" fill="white"/>
<path d="M576.55 451.483V502.929L584.533 498.494V447.048L576.55 451.483Z" fill="#0BA19F"/>
<path d="M576.55 451.483V502.929L531.313 476.319V424.873L576.55 451.483Z" fill="#0FBAB8"/>
<path d="M531.313 424.873L576.55 451.483L584.533 447.048L538.409 420.438L531.313 424.873Z" fill="#3ECFCD"/>
<path opacity="0.7" d="M531.313 424.873L576.55 451.483L584.533 447.048L576.55 449.709L531.313 424.873Z" fill="white"/>
<path d="M635.092 485.189V536.635L643.075 532.2V480.754L635.092 485.189Z" fill="#0BA19F"/>
<path d="M635.092 485.189V536.635L589.855 510.025V458.579L635.092 485.189Z" fill="#0FBAB8"/>
<path d="M589.855 458.579L635.092 485.189L643.075 480.754L597.838 454.144L589.855 458.579Z" fill="#3ECFCD"/>
<path opacity="0.7" d="M589.855 458.579L635.092 485.189L643.075 480.754L635.092 482.528L589.855 458.579Z" fill="white"/>
<path d="M563.245 473.658C561.471 471.884 560.584 470.11 558.81 468.336C557.923 467.449 557.923 465.675 558.81 465.675C559.697 464.788 560.584 464.788 560.584 463.014C561.471 463.014 562.358 463.014 562.358 462.127C562.358 461.24 561.471 460.353 561.471 459.466C561.471 455.031 559.697 450.596 554.375 447.935C549.053 445.274 548.166 447.935 547.279 452.37C546.392 452.37 546.392 453.257 546.392 454.144C546.392 455.031 547.279 456.805 548.166 456.805C549.053 458.579 549.053 460.353 549.94 462.127C550.827 463.014 550.827 464.788 549.94 464.788C549.053 465.675 547.279 465.675 545.505 464.788C543.731 463.901 541.957 465.675 541.957 468.336V472.771C541.957 473.658 542.844 474.545 543.731 475.432L565.019 487.85C565.906 488.737 566.793 487.85 566.793 486.963V482.528C566.793 478.093 565.019 475.432 563.245 473.658Z" fill="white"/>
<path d="M597.838 506.477L604.934 510.912V497.607L597.838 493.172V506.477ZM610.256 513.573L617.352 518.008V494.059L610.256 489.624V513.573ZM621.787 484.302V519.782L628.883 524.217V488.737L621.787 484.302Z" fill="white"/>
<path d="M506.478 437.291C506.478 436.404 506.478 435.517 506.478 435.517H510.026C510.026 433.743 509.139 431.969 508.252 430.195L504.704 429.308C503.817 427.534 502.93 426.647 502.043 424.873L502.93 420.438C502.043 418.664 500.269 417.777 499.382 416.003L496.721 418.664C495.834 418.664 495.834 417.777 494.947 417.777C494.06 417.777 494.06 416.89 493.173 416.89L491.399 411.568C489.625 411.568 488.738 410.681 487.851 411.568L488.738 416.89C487.851 416.89 486.964 417.777 486.077 418.664L482.529 415.116C481.642 416.003 481.642 416.89 480.755 418.664L484.303 423.099C484.303 423.986 484.303 423.986 484.303 424.873C484.303 425.76 484.303 426.647 484.303 426.647H480.755C480.755 428.421 481.642 430.195 482.529 431.969L486.077 432.856C486.964 434.63 487.851 435.517 488.738 437.291L487.851 441.726C488.738 443.5 490.512 444.387 491.399 446.161L493.173 443.5C494.06 443.5 494.06 444.387 494.947 444.387C495.834 444.387 495.834 445.274 496.721 445.274L498.495 450.596C500.269 450.596 501.156 451.483 502.043 450.596L501.156 445.274C502.043 445.274 502.93 444.387 503.817 443.5L507.365 447.048C508.252 446.161 508.252 445.274 509.139 443.5L505.591 439.065C506.478 439.065 506.478 438.178 506.478 437.291ZM494.947 436.404C492.286 434.63 490.512 431.082 490.512 428.421C490.512 425.76 492.286 423.986 494.947 425.76C497.608 427.534 499.382 431.082 499.382 433.743C499.382 436.404 497.608 437.291 494.947 436.404Z" fill="white"/>
<path d="M420.438 376.975L435.517 400.037L450.596 393.828C449.709 392.941 449.709 392.941 448.822 392.054L423.099 376.975C421.325 376.975 420.438 376.975 420.438 376.975Z" fill="white"/>
<path d="M449.709 393.828L434.63 401.811L430.195 394.715L420.438 399.15L430.195 393.828L420.438 376.975C419.551 376.975 419.551 377.862 419.551 378.749V396.489C419.551 398.263 420.438 400.924 422.212 401.811L447.935 416.89C449.709 417.777 450.596 416.89 450.596 415.116V397.376C450.596 395.602 450.596 394.715 449.709 393.828ZM449.709 416.003L439.065 399.15L439.952 398.263L449.709 416.003Z" fill="white"/>
<path d="M227.96 533.087V598.725L237.717 592.516V526.878L227.96 533.087Z" fill="#2672AB"/>
<path d="M227.959 533.087V598.725L51.4464 496.72V431.082L227.959 533.087Z" fill="#3F92D1"/>
<path d="M51.4464 431.082L227.959 533.087L237.716 526.878L61.2034 424.873L51.4464 431.082Z" fill="#72B5E8"/>
<path opacity="0.7" d="M51.4464 431.082L227.959 533.087L237.716 526.878L227.072 531.313L51.4464 431.082Z" fill="white"/>
<path d="M119.745 480.754L87.8134 462.127C86.0394 461.24 84.2654 462.127 84.2654 463.901V486.076C84.2654 488.737 86.0394 491.398 87.8134 492.285L108.214 503.816L117.971 521.556V510.025L119.745 510.912C121.519 511.799 123.293 510.912 123.293 509.138V486.963C123.293 485.189 121.519 481.641 119.745 480.754ZM96.6834 485.189C95.7964 486.076 94.0224 485.189 93.1354 483.415C92.2484 481.641 92.2484 479.867 93.1354 478.98C94.0224 478.093 95.7964 478.98 96.6834 480.754C97.5704 482.528 97.5704 484.302 96.6834 485.189ZM105.553 489.624C104.666 490.511 102.892 489.624 102.005 487.85C101.118 486.076 101.118 484.302 102.005 483.415C102.892 482.528 104.666 483.415 105.553 485.189C106.44 486.963 106.44 489.624 105.553 489.624ZM114.423 494.946C113.536 495.833 111.762 494.946 110.875 493.172C109.988 491.398 109.988 489.624 110.875 488.737C111.762 487.85 113.536 488.737 114.423 490.511C115.31 492.285 115.31 494.059 114.423 494.946ZM80.7174 484.302V466.562L68.2994 459.466C66.5254 458.579 64.7514 459.466 64.7514 461.24V483.415C64.7514 486.076 66.5254 488.737 68.2994 489.624L70.9604 491.398V502.929L80.7174 496.72L101.118 508.251C102.892 509.138 104.666 508.251 104.666 506.477V505.59L87.8134 495.833C83.3784 493.172 80.7174 488.737 80.7174 484.302Z" fill="white"/>
<path d="M130.39 492.285V497.607L214.655 546.392V540.183L130.39 492.285Z" fill="white"/>
<path d="M188.045 548.166L130.39 514.46V519.782L188.045 553.488V548.166Z" fill="white"/>
<path d="M130.39 508.251L214.655 557.036V551.714L130.39 502.929V508.251Z" fill="white"/>
<path opacity="0.2" d="M345.043 670.572L290.049 639.527C294.484 635.979 297.145 631.544 297.145 627.109C297.145 614.691 275.857 604.934 250.134 604.934C224.411 604.934 203.123 614.691 203.123 627.109C203.123 639.527 224.411 649.284 250.134 649.284C255.456 649.284 260.778 648.397 265.213 648.397L324.642 681.216C328.19 682.99 335.286 682.99 339.721 680.329C345.043 678.555 351.252 674.12 345.043 670.572Z" fill="#92B4D1"/>
<path d="M334.399 682.991C341.258 682.991 346.817 677.431 346.817 670.573C346.817 663.714 341.258 658.155 334.399 658.155C327.541 658.155 321.981 663.714 321.981 670.573C321.981 677.431 327.541 682.991 334.399 682.991Z" fill="#001A46"/>
<path d="M305.128 585.42L277.631 599.612L318.433 674.12C321.094 678.555 329.077 678.555 336.173 675.007C343.269 670.572 347.704 664.363 345.93 659.928L305.128 585.42Z" fill="#084C94"/>
<path d="M295.971 600.366C303.302 596.415 307.361 589.717 305.037 585.404C302.713 581.092 294.886 580.799 287.555 584.75C280.224 588.7 276.165 595.399 278.489 599.711C280.813 604.024 288.64 604.317 295.971 600.366Z" fill="#2672AB"/>
<path d="M287.389 565.906L271.423 574.776L282.954 596.064C284.728 598.725 289.163 598.725 293.598 596.064C298.033 593.403 300.694 589.855 298.92 587.194L287.389 565.906Z" fill="#001A46"/>
<path d="M242.152 393.828C221.751 382.297 204.011 381.41 190.706 388.506C190.706 388.506 171.192 399.15 170.305 400.037C183.61 389.393 204.011 390.28 226.186 402.698C266.988 426.647 299.807 483.415 299.807 530.426C299.807 554.375 290.937 571.228 277.632 578.324C278.519 578.324 279.406 577.437 281.18 576.55C281.18 576.55 294.485 568.567 295.372 568.567C307.79 560.584 315.773 544.618 315.773 521.556C315.773 474.545 282.954 417.777 242.152 393.828Z" fill="#72B5E8"/>
<path d="M226.186 403.585C185.384 379.636 152.565 399.15 152.565 446.161C152.565 493.172 185.384 549.94 226.186 573.889C266.988 597.838 299.807 578.324 299.807 531.313C299.807 484.302 266.988 426.647 226.186 403.585ZM225.299 561.471C190.706 541.07 162.322 493.172 162.322 453.257C162.322 413.342 190.706 397.376 225.299 417.777C259.892 438.178 288.276 486.076 288.276 525.991C288.276 565.906 259.892 581.872 225.299 561.471Z" fill="#D1EBFF"/>
<path d="M238.603 554.375C204.01 533.974 175.626 486.076 175.626 446.161C175.626 430.195 180.061 417.777 188.044 409.794C172.965 414.229 162.321 429.308 162.321 453.257C162.321 493.172 190.705 541.957 225.298 561.471C245.699 573.002 264.326 572.115 275.857 561.471C265.213 565.019 251.908 562.358 238.603 554.375Z" fill="#72B5E8"/>
<path d="M229.734 400.924C210.22 389.393 192.48 388.506 179.175 394.715C191.593 391.167 209.333 392.941 226.186 402.698C266.988 426.647 299.807 483.415 299.807 530.426C299.807 555.262 288.276 572.115 273.197 579.211C290.937 573.889 303.355 556.149 303.355 528.652C304.242 482.528 270.536 424.873 229.734 400.924Z" fill="white"/>
</svg>
