<svg width="50" height="50" viewBox="0 0 83 83" fill="none" xmlns="http://www.w3.org/2000/svg">
<path d="M72.9708 10.1675H10.0292V73.1092H72.9708V10.1675Z" fill="#007CE4"/>
<path d="M40.7046 51.2871C35.9667 50.9066 32.1625 46.9987 31.8512 42.2608C31.5054 36.6237 35.9667 31.955 41.5346 31.955V26.0412C32.7504 26.0412 25.6608 33.2691 25.9375 42.1225C26.1796 50.215 32.7158 56.8896 40.8083 57.27C49.4196 57.6504 56.6129 51.045 57.0971 42.6412H51.1487C50.63 47.7596 46.065 51.7366 40.7046 51.2871Z" fill="white"/>
<path d="M40.7046 34.9637C37.4192 35.3096 34.9638 38.1108 34.7563 41.3962L34.6871 42.4337H39.0792L39.1829 41.5C39.2867 40.4971 39.9783 39.6325 40.9467 39.3904C42.6067 39.01 44.0592 40.4279 43.7479 42.0533C43.5404 43.16 42.5029 43.9208 41.3963 43.9208H40.3242V48.3129H41.2925C44.5088 48.3129 47.6558 45.7537 48.1054 42.5721C48.7279 38.2146 45.0967 34.5142 40.7046 34.9637Z" fill="white"/>
<path d="M39.3558 62.3192C29.3958 61.3162 21.4762 53.12 20.7846 43.1254C19.9546 31.0212 29.5687 20.8537 41.5 20.8537V23.8971C31.2979 23.8971 23.1017 32.5429 23.7933 42.8833C24.3812 51.46 31.1596 58.4458 39.7017 59.2758C49.8346 60.2787 58.5842 52.6358 59.1721 42.7104L62.2154 42.8833C61.5237 54.5725 51.2525 63.5296 39.3558 62.3192Z" fill="white"/>
<path d="M59.345 30.9175C61.9617 30.9175 64.0829 28.7963 64.0829 26.1796C64.0829 23.5629 61.9617 21.4417 59.345 21.4417C56.7283 21.4417 54.6071 23.5629 54.6071 26.1796C54.6071 28.7963 56.7283 30.9175 59.345 30.9175Z" fill="#FEEC4D"/>
</svg>
