<svg width="1114" height="1114" viewBox="0 0 1114 1114" fill="none" xmlns="http://www.w3.org/2000/svg">
<path d="M354.251 925.732C418.852 925.732 471.221 918.749 471.221 910.136C471.221 901.523 418.852 894.54 354.251 894.54C289.651 894.54 237.281 901.523 237.281 910.136C237.281 918.749 289.651 925.732 354.251 925.732Z" fill="#AEE4ED"/>
<path d="M882.288 901.225C947.504 901.225 1000.37 896.237 1000.37 890.085C1000.37 883.932 947.504 878.945 882.288 878.945C817.072 878.945 764.204 883.932 764.204 890.085C764.204 896.237 817.072 901.225 882.288 901.225Z" fill="#AEE4ED"/>
<path d="M150.39 759.747H137.022V745.265H128.11V759.747H113.628V768.659H128.11V782.027H137.022V768.659H150.39V759.747Z" fill="#30C5CC"/>
<path d="M154.846 743.039C159.768 743.039 163.758 739.049 163.758 734.127C163.758 729.205 159.768 725.215 154.846 725.215C149.924 725.215 145.934 729.205 145.934 734.127C145.934 739.049 149.924 743.039 154.846 743.039Z" fill="#3D9CFF"/>
<path d="M800.966 845.525H307.464C237.282 845.525 179.354 787.597 179.354 717.415V372.075C179.354 301.893 237.282 243.965 307.464 243.965H800.966C871.148 243.965 929.076 301.893 929.076 372.075V716.301C929.076 787.597 871.148 845.525 800.966 845.525Z" fill="#4F9FDB"/>
<path d="M201.634 716.3V373.188C201.634 314.146 249.536 265.13 309.692 265.13H798.738C857.78 265.13 906.796 313.032 906.796 373.188V716.3C906.796 775.342 858.894 824.358 798.738 824.358H309.692C249.536 824.358 201.634 775.342 201.634 716.3Z" fill="#03336E"/>
<path d="M802.08 807.647H306.35C258.448 807.647 219.458 768.657 219.458 720.755V367.617C219.458 319.715 258.448 280.725 306.35 280.725H802.08C849.982 280.725 888.972 319.715 888.972 367.617V720.755C887.858 769.771 849.982 807.647 802.08 807.647Z" fill="#D1EBFF"/>
<path d="M133.68 806.535C149.276 831.043 176.012 847.753 207.204 847.753H901.226C932.418 847.753 959.154 831.043 974.75 806.535H133.68Z" fill="#03336E"/>
<path d="M142.592 818.789H964.724C968.066 815.447 971.408 810.991 973.636 806.535H133.68C137.022 810.991 139.25 815.447 142.592 818.789Z" fill="#4F9FDB"/>
<path d="M460.082 594.875H272.93V699.591H460.082V594.875Z" fill="#4F9FDB"/>
<path d="M525.807 327.515H455.625V337.541H525.807V327.515Z" fill="#30C5CC"/>
<path d="M406.609 327.515H364.278V337.541H406.609V327.515Z" fill="#30C5CC"/>
<path d="M350.909 327.515H266.245V337.541H350.909V327.515Z" fill="#30C5CC"/>
<path d="M440.029 327.515H421.091V337.541H440.029V327.515Z" fill="#30C5CC"/>
<path d="M585.963 327.515H543.631V337.541H585.963V327.515Z" fill="#30C5CC"/>
<path d="M482.361 355.365H455.625V365.391H482.361V355.365Z" fill="#30C5CC"/>
<path d="M519.124 355.365H492.388V365.391H519.124V355.365Z" fill="#30C5CC"/>
<path d="M363.163 355.365H320.831V365.391H363.163V355.365Z" fill="#30C5CC"/>
<path d="M308.577 355.365H266.245V365.391H308.577V355.365Z" fill="#30C5CC"/>
<path d="M445.599 355.365H375.417V365.391H445.599V355.365Z" fill="#30C5CC"/>
<path d="M391.014 892.313C386.558 877.831 377.646 817.675 376.532 794.281C376.532 789.825 320.832 767.545 320.832 767.545C288.526 766.431 271.816 779.799 271.816 779.799L348.682 805.421C348.682 839.955 378.76 892.313 378.76 892.313H391.014Z" fill="#2F2F8E"/>
<path d="M324.174 812.106L300.78 892.314L314.148 895.656C319.718 876.718 353.138 812.106 354.252 804.308C354.252 800.966 354.252 798.738 353.138 797.624C352.024 796.51 315.262 774.23 304.122 772.002C289.64 768.66 268.474 763.09 268.474 763.09C268.474 763.09 256.22 775.344 258.448 796.51C260.676 816.562 324.174 812.106 324.174 812.106Z" fill="#4C49A2"/>
<path d="M292.982 671.739C292.982 671.739 267.36 673.967 266.246 680.651C265.132 687.335 278.5 730.781 278.5 730.781L266.246 765.315C266.246 765.315 303.008 774.227 319.718 767.543C321.946 768.657 324.174 731.895 324.174 731.895L330.858 714.071L338.656 740.807L356.48 766.429L368.734 756.403L356.48 733.009C356.48 733.009 335.314 686.221 330.858 680.651C319.718 670.625 292.982 671.739 292.982 671.739Z" fill="white"/>
<path d="M313.034 673.967L310.806 648.345H291.868V672.853C289.64 672.853 294.096 692.905 309.692 692.905C309.692 691.791 317.49 688.449 313.034 673.967Z" fill="#E67750"/>
<path d="M275.158 717.415C277.386 725.213 279.614 730.783 279.614 730.783L267.36 765.317C267.36 765.317 295.21 772.001 314.148 769.773C311.92 768.659 290.754 753.063 289.64 747.493C285.184 733.011 275.158 717.415 275.158 717.415Z" fill="#EFEFEF"/>
<path d="M329.743 621.612C328.629 614.928 317.489 612.7 301.893 614.928C290.753 616.042 288.525 626.068 288.525 633.866C285.183 634.98 281.841 638.322 281.841 642.778C281.841 645.006 282.955 647.234 284.069 648.348C285.183 650.576 288.525 652.804 290.753 652.804C291.867 652.804 291.867 652.804 292.981 652.804C297.437 662.83 306.349 673.97 317.489 672.856C334.199 660.602 329.743 621.612 329.743 621.612Z" fill="#FD9E71"/>
<path d="M292.981 639.433C292.981 639.433 289.639 630.521 297.437 624.951C305.235 619.381 306.349 628.293 314.147 629.407C323.059 630.521 330.857 629.407 329.743 634.977C335.313 622.723 327.515 614.925 318.603 610.469C309.691 606.013 297.437 604.899 287.411 612.697C278.499 620.495 279.613 638.319 279.613 638.319C287.411 634.977 288.525 637.205 292.981 639.433Z" fill="#201251"/>
<path d="M289.64 611.585C289.64 611.585 281.842 591.533 267.36 595.989C252.878 601.559 259.562 629.409 258.448 642.777C257.334 655.031 247.308 656.145 245.08 650.575C239.51 661.715 262.904 673.969 270.702 662.829C278.5 651.689 274.044 623.839 278.5 621.611C282.956 619.383 288.526 622.725 288.526 622.725L289.64 611.585Z" fill="#201251"/>
<path d="M267.36 678.425C261.79 681.767 250.65 722.985 250.65 730.783C250.65 738.581 304.122 772.001 304.122 772.001C304.122 772.001 306.35 763.089 311.92 761.975C310.806 760.861 271.816 724.099 271.816 724.099L281.842 695.135C282.956 694.021 282.956 669.513 267.36 678.425Z" fill="white"/>
<path d="M299.666 776.459L354.252 775.345L389.9 787.599L329.744 790.941L299.666 776.459Z" fill="#30C5CC"/>
<path d="M329.744 790.937L299.666 779.797V776.455L331.972 788.709L329.744 790.937Z" fill="#0B9B9B"/>
<path d="M329.744 790.941L347.568 741.925L407.724 745.267L389.9 788.713L329.744 790.941Z" fill="#0B9B9B"/>
<path d="M374.031 759.716C371.831 758.615 368.708 760.398 367.056 763.7C365.404 767.001 365.85 770.57 368.051 771.671C370.251 772.772 373.374 770.988 375.026 767.687C376.678 764.386 376.232 760.817 374.031 759.716Z" fill="#30C5CC"/>
<path d="M311.919 760.86C311.919 760.86 333.085 777.57 330.857 778.684C328.629 779.798 318.603 779.798 314.147 776.456C308.577 773.114 304.121 769.772 304.121 769.772C304.121 769.772 306.349 761.974 311.919 760.86Z" fill="#FD9E71"/>
<path d="M315.261 891.198C318.603 895.654 331.971 901.224 338.655 902.338C345.339 904.566 344.225 910.135 339.769 910.135C329.743 910.135 307.463 909.022 296.323 909.022C294.095 903.452 297.437 896.768 300.779 892.312C301.893 890.084 314.147 890.084 315.261 891.198Z" fill="#201251"/>
<path d="M393.241 891.198C396.583 895.654 409.951 901.224 416.635 902.338C423.319 904.566 422.205 910.135 417.749 910.135C407.723 910.135 385.443 909.022 374.303 909.022C372.075 903.452 375.417 896.768 378.759 892.312C379.873 890.084 393.241 890.084 393.241 891.198Z" fill="#201251"/>
<path d="M326.402 553.655H274.044V568.137H326.402V553.655Z" fill="#31D0A8"/>
<path d="M458.968 553.655H406.61V568.137H458.968V553.655Z" fill="#31D0A8"/>
<path d="M393.242 553.655H340.884V568.137H393.242V553.655Z" fill="#31D0A8"/>
<path d="M614.959 275.967L449.425 316.549L464.544 378.218L630.077 337.636L614.959 275.967Z" fill="#4756EA"/>
<path d="M583.086 292.533L460.829 322.506L462.951 331.161L585.208 301.188L583.086 292.533Z" fill="#D1EBFF"/>
<path d="M565.634 313.091L463.934 338.024L466.056 346.679L567.756 321.747L565.634 313.091Z" fill="#D1EBFF"/>
<path d="M517.415 342.733L468.729 354.669L470.85 363.324L519.537 351.388L517.415 342.733Z" fill="#D1EBFF"/>
<path d="M597.919 305.418L571.953 311.784L574.075 320.44L600.041 314.074L597.919 305.418Z" fill="white"/>
<path d="M457.853 385.445H271.815V538.063H457.853V385.445Z" fill="white"/>
<path d="M838.841 473.45H472.335V542.518H838.841V473.45Z" fill="#4CB0DD"/>
<path d="M827.701 483.475H728.555V532.491H827.701V483.475Z" fill="white"/>
<path d="M715.186 486.82H485.703V495.732H715.186V486.82Z" fill="#75D5EF"/>
<path d="M715.186 503.53H485.703V512.442H715.186V503.53Z" fill="#75D5EF"/>
<path d="M640.549 520.24H485.703V529.152H640.549V520.24Z" fill="#75D5EF"/>
<path d="M824.359 591.535H472.335V756.407H824.359V591.535Z" fill="white"/>
<path d="M824.359 591.535H472.335V619.385H824.359V591.535Z" fill="#FFD70F"/>
<path d="M685.109 657.26H481.247V671.742H685.109V657.26Z" fill="#98DBE5"/>
<path d="M663.943 682.885H481.247V697.367H663.943V682.885Z" fill="#98DBE5"/>
<path d="M603.787 707.39H481.247V721.872H603.787V707.39Z" fill="#98DBE5"/>
<path d="M554.771 634.979H481.247V649.461H554.771V634.979Z" fill="#98DBE5"/>
<path d="M809.877 633.865H704.047V739.695H809.877V633.865Z" fill="#86D2E8"/>
<path d="M767.546 686.224C768.66 683.996 769.774 680.654 769.774 678.426V670.628C769.774 662.83 764.204 657.26 756.406 657.26C748.608 657.26 743.038 662.83 743.038 670.628V678.426C743.038 681.768 744.152 683.996 746.38 687.338C734.126 691.794 725.214 704.048 725.214 717.416H792.054C792.054 717.416 789.826 692.908 767.546 686.224Z" fill="#F6FFFA"/>
<path d="M490.159 612.702C493.85 612.702 496.843 609.71 496.843 606.018C496.843 602.327 493.85 599.334 490.159 599.334C486.467 599.334 483.475 602.327 483.475 606.018C483.475 609.71 486.467 612.702 490.159 612.702Z" fill="#DB5A28"/>
<path d="M512.439 612.702C516.13 612.702 519.123 609.71 519.123 606.018C519.123 602.327 516.13 599.334 512.439 599.334C508.748 599.334 505.755 602.327 505.755 606.018C505.755 609.71 508.748 612.702 512.439 612.702Z" fill="#201251"/>
<path d="M538.061 612.702C541.753 612.702 544.745 609.71 544.745 606.018C544.745 602.327 541.753 599.334 538.061 599.334C534.37 599.334 531.377 602.327 531.377 606.018C531.377 609.71 534.37 612.702 538.061 612.702Z" fill="#1FB288"/>
<path d="M827.702 320.83H704.047V444.484H827.702V320.83Z" fill="#03336E"/>
<path d="M876.718 867.805C876.718 867.805 877.832 871.147 867.806 875.603C857.78 880.059 847.754 878.945 844.412 882.287C842.184 885.629 841.07 890.085 841.07 890.085H897.884C897.884 890.085 897.884 874.489 891.2 867.805C892.314 868.919 876.718 867.805 876.718 867.805Z" fill="#9E472D"/>
<path d="M939.102 867.805C939.102 867.805 940.216 871.147 930.19 875.603C920.164 880.059 910.138 878.945 907.91 882.287C905.682 885.629 904.568 888.971 904.568 888.971H959.154C959.154 888.971 959.154 874.489 952.47 867.805C953.584 868.919 939.102 867.805 939.102 867.805Z" fill="#9E472D"/>
<path d="M865.578 570.368L825.474 578.166L796.51 515.782L839.956 512.44L865.578 570.368Z" fill="white"/>
<path d="M894.543 454.51C894.543 454.51 888.973 465.65 888.973 475.676C888.973 482.36 890.087 492.386 890.087 497.956C890.087 500.184 892.315 501.298 894.543 500.184L902.341 497.956V510.21H924.621L929.077 462.308C930.191 462.308 911.253 441.142 894.543 454.51Z" fill="#FD9E71"/>
<path d="M896.77 479.018C896.77 479.018 897.884 470.106 905.682 471.22C912.366 473.448 904.568 482.36 904.568 482.36L911.252 494.614C915.708 496.842 921.278 496.842 926.848 494.614C926.848 494.614 934.646 471.22 934.646 464.536C934.646 457.852 927.962 452.282 927.962 452.282C927.962 452.282 910.138 443.37 901.226 443.37C891.2 443.37 891.2 453.396 891.2 453.396C891.2 453.396 887.858 460.08 891.2 463.422C893.428 467.878 896.77 479.018 896.77 479.018Z" fill="#201251"/>
<path d="M925.734 502.41L924.62 509.094H901.226C901.226 509.094 905.682 502.41 925.734 502.41Z" fill="#6AA5CC"/>
<path d="M825.474 561.454C825.474 561.454 826.588 555.884 821.018 553.656C821.018 552.542 819.904 546.972 818.79 544.744C817.676 543.63 816.562 551.428 816.562 551.428C816.562 551.428 809.878 540.288 808.764 542.516C807.65 545.858 823.246 568.138 824.36 569.252C823.246 569.252 825.474 561.454 825.474 561.454Z" fill="#FD9E71"/>
<path d="M886.744 636.094L871.148 768.66L874.49 871.148L894.542 870.034C894.542 870.034 900.112 816.562 900.112 802.08C900.112 788.712 896.77 767.546 896.77 767.546L916.822 685.11L920.164 686.224L921.278 766.432L939.102 868.92L955.812 870.034C955.812 870.034 955.812 817.676 954.698 804.308C953.584 790.94 945.786 765.318 945.786 765.318L952.47 681.768C952.47 681.768 959.154 659.488 946.9 634.98C945.786 634.98 886.744 636.094 886.744 636.094Z" fill="#201251"/>
<path d="M901.226 509.094C901.226 509.094 873.376 518.006 867.806 523.576C862.236 529.146 847.754 581.504 847.754 581.504L825.474 559.224L818.79 574.82C818.79 574.82 844.412 613.81 853.324 614.924C861.122 616.038 880.06 565.908 880.06 565.908C880.06 565.908 881.174 593.758 884.516 607.126C887.858 622.722 886.744 634.976 886.744 634.976C911.252 639.432 933.532 638.318 946.9 633.862L953.584 581.504C953.584 581.504 963.61 582.618 965.838 579.276C969.18 575.934 954.698 521.348 952.47 516.892C949.128 512.436 924.62 507.98 924.62 507.98L901.226 509.094Z" fill="#96C4EA"/>
<path d="M929.076 545.858C929.076 544.744 926.848 544.744 926.848 545.858C927.962 568.138 926.848 590.418 923.506 612.698C923.506 613.812 925.734 614.926 925.734 613.812C930.19 591.532 932.418 568.138 929.076 545.858Z" fill="#6AA5CC"/>
<path d="M954.698 562.57C954.698 561.456 953.584 562.57 953.584 562.57C953.584 575.938 951.356 588.192 949.128 601.56C946.9 612.7 944.672 624.954 945.786 636.094C945.786 637.208 948.014 638.322 948.014 636.094C946.9 622.726 950.242 609.358 952.47 595.99C954.698 584.85 956.926 573.71 954.698 562.57Z" fill="#6AA5CC"/>
<path d="M882.288 561.455C874.49 565.911 872.262 575.937 868.92 583.735C865.578 594.875 861.122 604.901 852.21 612.699C851.096 613.813 853.324 616.041 854.438 614.927C871.148 601.559 870.034 578.165 882.288 561.455C883.402 562.569 883.402 561.455 882.288 561.455Z" fill="#6AA5CC"/>
<path d="M948.014 630.523C948.014 630.523 910.138 634.979 886.744 628.295C887.858 628.295 886.744 634.979 886.744 634.979C886.744 634.979 915.708 646.119 949.128 637.207C949.128 638.321 948.014 630.523 948.014 630.523Z" fill="#9E472D"/>
<path d="M554.771 785.365C554.771 785.365 551.429 792.049 545.859 793.163C540.289 794.277 525.807 797.619 523.579 799.847C521.351 802.075 521.351 806.531 521.351 806.531H567.025C567.025 806.531 567.025 793.163 564.797 785.365C565.911 785.365 554.771 785.365 554.771 785.365Z" fill="#1A133A"/>
<path d="M642.778 785.365C642.778 785.365 639.436 792.049 633.866 793.163C628.296 794.277 613.814 797.619 611.586 799.847C609.358 802.075 609.358 806.531 609.358 806.531H655.032C655.032 806.531 655.032 793.163 652.804 785.365C652.804 785.365 642.778 785.365 642.778 785.365Z" fill="#1A133A"/>
<path d="M637.207 339.767C637.207 339.767 624.953 336.425 623.839 338.653C622.725 340.881 643.891 346.451 643.891 346.451L661.715 396.581L655.031 413.291L667.285 426.659C667.285 426.659 680.653 407.721 681.767 402.151C682.881 396.581 649.461 341.995 649.461 341.995C649.461 341.995 642.777 320.829 641.663 319.715C640.549 318.601 628.295 319.715 626.067 319.715C623.839 319.715 633.865 330.855 633.865 330.855L637.207 339.767Z" fill="#E79673"/>
<path d="M587.078 376.528C587.078 376.528 581.508 385.44 579.28 394.352C578.166 403.264 579.28 412.176 579.28 412.176H590.42V422.202H612.7C612.7 422.202 612.7 414.404 613.814 409.948C614.928 405.492 620.498 397.694 620.498 397.694L610.472 369.844L595.99 368.73L587.078 376.528Z" fill="#E79673"/>
<path d="M592.648 389.895C592.648 389.895 595.99 380.983 601.56 384.325C606.016 387.667 600.446 395.465 600.446 395.465C600.446 395.465 603.788 407.719 608.244 409.947C613.814 412.175 613.814 412.175 613.814 412.175C613.814 412.175 627.182 399.921 629.41 396.579C631.638 393.237 626.068 373.185 621.612 368.729C618.27 364.273 601.56 365.387 599.332 363.159C598.218 360.931 593.762 357.589 589.306 358.703C584.85 360.931 585.964 374.299 585.964 374.299C585.964 374.299 591.534 378.755 591.534 382.097C591.534 385.439 589.306 389.895 589.306 389.895H592.648Z" fill="#201251"/>
<path d="M572.596 422.204C572.596 422.204 594.876 418.862 607.13 418.862C619.384 418.862 639.436 425.546 639.436 425.546L653.918 409.95L672.856 427.774C672.856 427.774 657.26 451.168 651.69 456.738C646.12 462.308 642.778 487.93 641.664 495.728C640.55 503.526 637.208 548.086 637.208 548.086C637.208 548.086 623.84 563.682 569.254 545.858C568.14 544.744 571.482 512.438 571.482 504.64C571.482 496.842 563.684 468.992 562.57 463.422C561.456 456.738 538.062 443.37 538.062 443.37C538.062 443.37 534.72 427.774 545.86 419.976C546.974 421.09 572.596 422.204 572.596 422.204Z" fill="#201251"/>
<path d="M521.352 357.59C521.352 357.59 513.554 365.388 512.44 368.73C511.326 372.072 523.58 407.72 523.58 407.72L545.86 419.974L538.062 443.368C538.062 443.368 514.668 426.658 511.326 422.202C507.984 417.746 502.414 368.73 502.414 368.73C502.414 368.73 494.616 358.704 494.616 356.476C493.502 354.248 492.388 345.336 493.502 344.222C494.616 343.108 503.528 333.082 504.642 336.424C505.756 338.652 510.212 358.704 510.212 358.704C510.212 358.704 519.124 354.248 521.352 357.59Z" fill="#E79673"/>
<path d="M569.254 545.859L557 662.829L550.316 786.483L571.482 787.597C571.482 787.597 584.85 705.161 584.85 692.907C584.85 680.653 584.85 665.057 584.85 665.057L598.218 602.673H606.016L621.612 683.995L638.322 785.369L655.032 786.483C655.032 786.483 657.26 722.985 655.032 710.731C652.804 697.363 648.348 685.109 648.348 685.109L640.55 600.445C640.55 600.445 647.234 570.367 637.208 546.973C636.094 543.631 569.254 545.859 569.254 545.859Z" fill="#4C49A2"/>
<path d="M437.802 413.292H424.434V398.81H415.522V413.292H402.154V421.09H415.522V435.572H424.434V421.09H437.802V413.292Z" fill="#FDBE44"/>
<path d="M308.577 520.235C296.323 520.235 286.297 510.209 286.297 497.955C286.297 485.701 296.323 475.675 308.577 475.675C320.831 475.675 330.857 485.701 330.857 497.955C330.857 510.209 320.831 520.235 308.577 520.235ZM308.577 487.929C303.007 487.929 298.551 492.385 298.551 497.955C298.551 503.525 303.007 507.981 308.577 507.981C314.147 507.981 318.603 503.525 318.603 497.955C318.603 492.385 314.147 487.929 308.577 487.929Z" fill="#30C5CC"/>
<path d="M978.092 319.718H963.61V306.35H955.812V319.718H941.33V328.63H955.812V343.112H963.61V328.63H978.092V319.718Z" fill="#30C5CC"/>
<path d="M900.112 233.939C905.034 233.939 909.024 229.949 909.024 225.027C909.024 220.105 905.034 216.115 900.112 216.115C895.19 216.115 891.2 220.105 891.2 225.027C891.2 229.949 895.19 233.939 900.112 233.939Z" fill="#3D9CFF"/>
<path d="M740.81 376.53C728.556 376.53 718.53 366.504 718.53 354.25C718.53 341.996 728.556 331.97 740.81 331.97C753.064 331.97 763.09 341.996 763.09 354.25C761.976 366.504 751.95 376.53 740.81 376.53ZM740.81 344.224C735.24 344.224 730.784 348.68 730.784 354.25C730.784 359.82 735.24 364.276 740.81 364.276C746.38 364.276 750.836 359.82 750.836 354.25C750.836 348.68 746.38 344.224 740.81 344.224Z" fill="#96C4EA"/>
<path d="M856.665 232.825C844.411 232.825 834.385 222.799 834.385 210.545C834.385 198.291 844.411 188.265 856.665 188.265C868.919 188.265 878.945 198.291 878.945 210.545C877.831 222.799 867.805 232.825 856.665 232.825ZM856.665 200.519C851.095 200.519 846.639 204.975 846.639 210.545C846.639 216.115 851.095 220.571 856.665 220.571C862.235 220.571 866.691 216.115 866.691 210.545C866.691 204.975 862.235 200.519 856.665 200.519Z" fill="#FFD70F"/>
</svg>
